M48
; DRILL file {KiCad 6.0.5-a6ca702e91~116~ubuntu20.04.1} date 2022. okt. 27., csütörtök, 20:54:56 CEST
; FORMAT={-:-/ absolute / metric / decimal}
; #@! TF.CreationDate,2022-10-27T20:54:56+02:00
; #@! TF.GenerationSoftware,Kicad,Pcbnew,6.0.5-a6ca702e91~116~ubuntu20.04.1
; #@! TF.FileFunction,NonPlated,1,2,NPTH
FMAT,2
METRIC
; #@! TA.AperFunction,NonPlated,NPTH,ComponentDrill
T1C0.500
%
G90
G05
T1
X15.5Y-23.0
X15.5Y-217.44
X16.5Y-23.0
X16.5Y-217.44
X17.5Y-23.0
X17.5Y-217.44
X18.5Y-23.0
X18.5Y-217.44
X19.5Y-23.0
X19.5Y-217.44
X23.0Y-83.313
X23.0Y-84.313
X23.0Y-85.313
X23.0Y-86.313
X23.0Y-87.313
X23.0Y-153.126
X23.0Y-154.126
X23.0Y-155.126
X23.0Y-156.126
X23.0Y-157.126
X37.482Y-93.013
X37.72Y-77.613
X37.72Y-217.24
X38.482Y-93.013
X38.72Y-77.613
X38.72Y-217.24
X39.482Y-93.013
X39.72Y-77.613
X39.72Y-217.24
X40.482Y-93.013
X40.72Y-77.613
X40.72Y-217.24
X41.482Y-93.013
X41.72Y-77.613
X41.72Y-217.24
X42.482Y-93.013
X42.72Y-77.613
X42.72Y-217.24
X43.482Y-93.013
X43.72Y-77.613
X43.72Y-217.24
X44.482Y-93.013
X44.72Y-77.613
X44.72Y-217.24
X45.482Y-93.013
X45.72Y-77.613
X45.72Y-217.24
X46.482Y-93.013
X46.72Y-77.613
X46.72Y-217.24
X66.683Y-23.2
X66.683Y-162.826
X66.921Y-147.426
X67.683Y-23.2
X67.683Y-162.826
X67.921Y-147.426
X68.683Y-23.2
X68.683Y-162.826
X68.921Y-147.426
X69.683Y-23.2
X69.683Y-162.826
X69.921Y-147.426
X70.683Y-23.2
X70.683Y-162.826
X70.921Y-147.426
X71.683Y-23.2
X71.683Y-162.826
X71.921Y-147.426
X72.683Y-23.2
X72.683Y-162.826
X72.921Y-147.426
X73.683Y-23.2
X73.683Y-162.826
X73.921Y-147.426
X74.683Y-23.2
X74.683Y-162.826
X74.921Y-147.426
X75.683Y-23.2
X75.683Y-162.826
X75.921Y-147.426
X95.885Y-93.013
X96.123Y-77.613
X96.123Y-217.24
X96.885Y-93.013
X97.123Y-77.613
X97.123Y-217.24
X97.885Y-93.013
X98.123Y-77.613
X98.123Y-217.24
X98.885Y-93.013
X99.123Y-77.613
X99.123Y-217.24
X99.885Y-93.013
X100.123Y-77.613
X100.123Y-217.24
X100.885Y-93.013
X101.123Y-77.613
X101.123Y-217.24
X101.885Y-93.013
X102.123Y-77.613
X102.123Y-217.24
X102.885Y-93.013
X103.123Y-77.613
X103.123Y-217.24
X103.885Y-93.013
X104.123Y-77.613
X104.123Y-217.24
X104.885Y-93.013
X105.123Y-77.613
X105.123Y-217.24
X125.087Y-23.2
X125.087Y-162.826
X125.325Y-147.426
X126.087Y-23.2
X126.087Y-162.826
X126.325Y-147.426
X127.087Y-23.2
X127.087Y-162.826
X127.325Y-147.426
X128.087Y-23.2
X128.087Y-162.826
X128.325Y-147.426
X129.087Y-23.2
X129.087Y-162.826
X129.325Y-147.426
X130.087Y-23.2
X130.087Y-162.826
X130.325Y-147.426
X131.087Y-23.2
X131.087Y-162.826
X131.325Y-147.426
X132.087Y-23.2
X132.087Y-162.826
X132.325Y-147.426
X133.087Y-23.2
X133.087Y-162.826
X133.325Y-147.426
X134.087Y-23.2
X134.087Y-162.826
X134.325Y-147.426
X154.288Y-93.013
X154.526Y-77.613
X154.526Y-217.24
X155.288Y-93.013
X155.526Y-77.613
X155.526Y-217.24
X156.288Y-93.013
X156.526Y-77.613
X156.526Y-217.24
X157.288Y-93.013
X157.526Y-77.613
X157.526Y-217.24
X158.288Y-93.013
X158.526Y-77.613
X158.526Y-217.24
X159.288Y-93.013
X159.526Y-77.613
X159.526Y-217.24
X160.288Y-93.013
X160.526Y-77.613
X160.526Y-217.24
X161.288Y-93.013
X161.526Y-77.613
X161.526Y-217.24
X162.288Y-93.013
X162.526Y-77.613
X162.526Y-217.24
X163.288Y-93.013
X163.526Y-77.613
X163.526Y-217.24
X183.49Y-23.2
X183.49Y-162.826
X183.728Y-147.426
X184.49Y-23.2
X184.49Y-162.826
X184.728Y-147.426
X185.49Y-23.2
X185.49Y-162.826
X185.728Y-147.426
X186.49Y-23.2
X186.49Y-162.826
X186.728Y-147.426
X187.49Y-23.2
X187.49Y-162.826
X187.728Y-147.426
X188.49Y-23.2
X188.49Y-162.826
X188.728Y-147.426
X189.49Y-23.2
X189.49Y-162.826
X189.728Y-147.426
X190.49Y-23.2
X190.49Y-162.826
X190.728Y-147.426
X191.49Y-23.2
X191.49Y-162.826
X191.728Y-147.426
X192.49Y-23.2
X192.49Y-162.826
X192.728Y-147.426
X212.691Y-93.013
X212.929Y-77.613
X212.929Y-217.24
X213.691Y-93.013
X213.929Y-77.613
X213.929Y-217.24
X214.691Y-93.013
X214.929Y-77.613
X214.929Y-217.24
X215.691Y-93.013
X215.929Y-77.613
X215.929Y-217.24
X216.691Y-93.013
X216.929Y-77.613
X216.929Y-217.24
X217.691Y-93.013
X217.929Y-77.613
X217.929Y-217.24
X218.691Y-93.013
X218.929Y-77.613
X218.929Y-217.24
X219.691Y-93.013
X219.929Y-77.613
X219.929Y-217.24
X220.691Y-93.013
X220.929Y-77.613
X220.929Y-217.24
X221.691Y-93.013
X221.929Y-77.613
X221.929Y-217.24
X236.411Y-83.313
X236.411Y-84.313
X236.411Y-85.313
X236.411Y-86.313
X236.411Y-87.313
X236.411Y-153.126
X236.411Y-154.126
X236.411Y-155.126
X236.411Y-156.126
X236.411Y-157.126
X239.911Y-23.0
X239.911Y-217.44
X240.911Y-23.0
X240.911Y-217.44
X241.911Y-23.0
X241.911Y-217.44
X242.911Y-23.0
X242.911Y-217.44
X243.911Y-23.0
X243.911Y-217.44
T0
M30
