M48
; DRILL file {KiCad (6.0.2)} date Sun Oct 30 19:53:11 2022
; FORMAT={-:-/ absolute / metric / decimal}
; #@! TF.CreationDate,2022-10-30T19:53:11+01:00
; #@! TF.GenerationSoftware,Kicad,Pcbnew,(6.0.2)
; #@! TF.FileFunction,Plated,1,2,PTH
FMAT,2
METRIC
; #@! TA.AperFunction,Plated,PTH,ViaDrill
T1C0.400
; #@! TA.AperFunction,Plated,PTH,ComponentDrill
T2C0.650
; #@! TA.AperFunction,Plated,PTH,ComponentDrill
T3C1.300
; #@! TA.AperFunction,Plated,PTH,ViaDrill
T4C2.000
%
G90
G05
T1
X29.407Y-101.807
X29.545Y-68.819
X29.545Y-208.445
X30.795Y-60.069
X30.795Y-199.695
X30.907Y-110.557
X32.657Y-127.557
X32.795Y-43.069
X32.795Y-182.695
X33.203Y-69.243
X33.203Y-208.869
X33.795Y-52.569
X33.795Y-192.195
X33.907Y-116.057
X34.024Y-113.69
X34.157Y-109.057
X34.295Y-62.069
X34.295Y-201.695
X34.489Y-120.179
X35.045Y-51.569
X35.045Y-191.195
X35.148Y-56.319
X35.148Y-195.945
X35.545Y-34.069
X35.545Y-173.695
X36.157Y-129.557
X37.407Y-138.557
X37.521Y-41.811
X37.521Y-48.669
X37.521Y-181.437
X37.521Y-188.295
X37.657Y-127.557
X37.965Y-73.243
X37.965Y-212.87
X38.045Y-63.994
X38.045Y-130.593
X38.045Y-203.62
X38.657Y-138.557
X38.782Y-98.557
X38.795Y-72.069
X38.795Y-211.695
X39.045Y-67.084
X39.045Y-206.71
X39.097Y-32.319
X39.097Y-171.945
X39.657Y-120.057
X39.657Y-129.807
X40.315Y-46.764
X40.315Y-186.39
X40.712Y-104.812
X40.907Y-107.807
X41.295Y-40.819
X41.295Y-61.454
X41.295Y-180.445
X41.295Y-201.08
X41.795Y-43.137
X41.795Y-182.763
X41.982Y-111.162
X41.982Y-133.133
X42.045Y-29.372
X42.045Y-168.998
X42.157Y-141.255
X42.22Y-37.493
X42.22Y-59.464
X42.22Y-177.119
X42.22Y-199.09
X42.407Y-127.49
X42.907Y-109.172
X42.907Y-129.807
X43.295Y-62.819
X43.295Y-202.445
X43.49Y-65.814
X43.49Y-205.44
X43.887Y-123.862
X44.545Y-40.819
X44.545Y-50.569
X44.545Y-180.445
X44.545Y-190.195
X45.104Y-138.307
X45.157Y-103.542
X45.407Y-98.557
X45.42Y-72.069
X45.42Y-211.695
X45.545Y-32.069
X45.545Y-171.695
X46.157Y-40.033
X46.157Y-106.632
X46.157Y-179.659
X46.236Y-97.383
X46.545Y-43.069
X46.545Y-182.695
X46.681Y-121.957
X46.681Y-128.815
X46.795Y-32.069
X46.795Y-171.695
X48.045Y-41.069
X48.045Y-180.695
X48.657Y-136.557
X49.054Y-114.307
X49.157Y-119.057
X49.713Y-50.447
X49.713Y-190.073
X49.907Y-108.557
X50.045Y-61.569
X50.045Y-201.195
X50.177Y-56.937
X50.177Y-196.563
X50.295Y-54.569
X50.295Y-194.195
X50.407Y-118.057
X50.999Y-101.383
X51.407Y-127.557
X51.545Y-43.069
X51.545Y-182.695
X53.295Y-60.069
X53.295Y-199.695
X53.407Y-110.557
X54.657Y-101.807
X54.795Y-68.819
X54.795Y-208.445
X58.608Y-31.994
X58.608Y-171.621
X58.746Y-138.632
X59.996Y-129.882
X60.108Y-40.744
X60.108Y-180.371
X61.858Y-57.744
X61.858Y-197.371
X61.996Y-112.882
X62.404Y-139.056
X62.996Y-122.382
X63.108Y-46.244
X63.108Y-185.871
X63.226Y-43.877
X63.226Y-183.503
X63.358Y-39.244
X63.358Y-178.871
X63.496Y-131.882
X63.69Y-50.366
X63.69Y-189.993
X64.246Y-121.382
X64.349Y-126.132
X64.746Y-103.882
X65.358Y-59.744
X65.358Y-199.371
X66.608Y-68.744
X66.608Y-208.371
X66.722Y-111.624
X66.722Y-118.482
X66.858Y-57.744
X66.858Y-197.371
X67.167Y-143.057
X67.246Y-60.78
X67.246Y-133.807
X67.246Y-200.407
X67.858Y-68.744
X67.858Y-208.371
X67.983Y-28.744
X67.983Y-168.371
X67.996Y-141.882
X68.246Y-136.897
X68.299Y-102.132
X68.858Y-50.244
X68.858Y-59.994
X68.858Y-189.871
X68.858Y-199.621
X69.516Y-116.577
X69.913Y-34.999
X69.913Y-174.626
X70.108Y-37.994
X70.108Y-177.621
X70.496Y-110.632
X70.496Y-131.267
X70.996Y-112.95
X71.183Y-41.349
X71.183Y-63.32
X71.183Y-180.976
X71.183Y-202.947
X71.246Y-99.185
X71.358Y-71.441
X71.358Y-211.068
X71.421Y-107.306
X71.421Y-129.277
X71.608Y-57.677
X71.608Y-197.303
X72.108Y-39.359
X72.108Y-59.994
X72.108Y-178.986
X72.108Y-199.621
X72.496Y-132.632
X72.691Y-135.627
X73.088Y-54.049
X73.088Y-193.676
X73.746Y-110.632
X73.746Y-120.382
X74.306Y-68.494
X74.306Y-208.121
X74.358Y-33.729
X74.358Y-173.356
X74.608Y-28.744
X74.608Y-168.371
X74.621Y-141.882
X74.746Y-101.882
X75.358Y-36.819
X75.358Y-109.846
X75.358Y-176.446
X75.438Y-27.57
X75.438Y-167.196
X75.746Y-112.882
X75.882Y-52.144
X75.882Y-59.002
X75.882Y-191.771
X75.882Y-198.629
X75.996Y-101.882
X77.246Y-110.882
X77.858Y-66.744
X77.858Y-206.371
X78.256Y-44.494
X78.256Y-184.121
X78.358Y-49.244
X78.358Y-188.871
X78.914Y-120.26
X79.108Y-38.744
X79.108Y-178.371
X79.246Y-131.382
X79.379Y-126.75
X79.496Y-124.382
X79.608Y-48.244
X79.608Y-187.871
X80.2Y-31.57
X80.2Y-171.197
X80.608Y-57.744
X80.608Y-197.371
X80.746Y-112.882
X82.496Y-129.882
X82.608Y-40.744
X82.608Y-180.371
X83.858Y-31.994
X83.858Y-171.621
X83.996Y-138.632
X87.81Y-101.807
X87.948Y-68.819
X87.948Y-208.445
X89.198Y-60.069
X89.198Y-199.695
X89.31Y-110.557
X91.06Y-127.557
X91.198Y-43.069
X91.198Y-182.695
X91.606Y-69.243
X91.606Y-208.869
X92.198Y-52.569
X92.198Y-192.195
X92.31Y-116.057
X92.428Y-113.69
X92.56Y-109.057
X92.698Y-62.069
X92.698Y-201.695
X92.892Y-120.179
X93.448Y-51.569
X93.448Y-191.195
X93.551Y-56.319
X93.551Y-195.945
X93.948Y-34.069
X93.948Y-173.695
X94.56Y-129.557
X95.81Y-138.557
X95.924Y-41.811
X95.924Y-48.669
X95.924Y-181.437
X95.924Y-188.295
X96.06Y-127.557
X96.368Y-73.243
X96.368Y-212.87
X96.448Y-63.994
X96.448Y-130.593
X96.448Y-203.62
X97.06Y-138.557
X97.185Y-98.557
X97.198Y-72.069
X97.198Y-211.695
X97.448Y-67.084
X97.448Y-206.71
X97.501Y-32.319
X97.501Y-171.945
X98.06Y-120.057
X98.06Y-129.807
X98.718Y-46.764
X98.718Y-186.39
X99.115Y-104.812
X99.31Y-107.807
X99.698Y-40.819
X99.698Y-61.454
X99.698Y-180.445
X99.698Y-201.08
X100.198Y-43.137
X100.198Y-182.763
X100.385Y-111.162
X100.385Y-133.133
X100.448Y-29.372
X100.448Y-168.998
X100.56Y-141.255
X100.623Y-37.493
X100.623Y-59.464
X100.623Y-177.119
X100.623Y-199.09
X100.81Y-127.49
X101.31Y-109.172
X101.31Y-129.807
X101.698Y-62.819
X101.698Y-202.445
X101.893Y-65.814
X101.893Y-205.44
X102.29Y-123.862
X102.948Y-40.819
X102.948Y-50.569
X102.948Y-180.445
X102.948Y-190.195
X103.507Y-138.307
X103.56Y-103.542
X103.81Y-98.557
X103.823Y-72.069
X103.823Y-211.695
X103.948Y-32.069
X103.948Y-171.695
X104.56Y-40.033
X104.56Y-106.632
X104.56Y-179.659
X104.639Y-97.383
X104.948Y-43.069
X104.948Y-182.695
X105.084Y-121.957
X105.084Y-128.815
X105.198Y-32.069
X105.198Y-171.695
X106.448Y-41.069
X106.448Y-180.695
X107.06Y-136.557
X107.457Y-114.307
X107.56Y-119.057
X108.116Y-50.447
X108.116Y-190.073
X108.31Y-108.557
X108.448Y-61.569
X108.448Y-201.195
X108.58Y-56.937
X108.58Y-196.563
X108.698Y-54.569
X108.698Y-194.195
X108.81Y-118.057
X109.402Y-101.383
X109.81Y-127.557
X109.948Y-43.069
X109.948Y-182.695
X111.698Y-60.069
X111.698Y-199.695
X111.81Y-110.557
X113.06Y-101.807
X113.198Y-68.819
X113.198Y-208.445
X117.012Y-31.994
X117.012Y-171.621
X117.15Y-138.632
X118.4Y-129.882
X118.512Y-40.744
X118.512Y-180.371
X120.262Y-57.744
X120.262Y-197.371
X120.4Y-112.882
X120.808Y-139.056
X121.4Y-122.382
X121.512Y-46.244
X121.512Y-185.871
X121.629Y-43.877
X121.629Y-183.503
X121.762Y-39.244
X121.762Y-178.871
X121.9Y-131.882
X122.094Y-50.366
X122.094Y-189.993
X122.65Y-121.382
X122.752Y-126.132
X123.15Y-103.882
X123.762Y-59.744
X123.762Y-199.371
X125.012Y-68.744
X125.012Y-208.371
X125.126Y-111.624
X125.126Y-118.482
X125.262Y-57.744
X125.262Y-197.371
X125.57Y-143.057
X125.65Y-60.78
X125.65Y-133.807
X125.65Y-200.407
X126.262Y-68.744
X126.262Y-208.371
X126.387Y-28.744
X126.387Y-168.371
X126.4Y-141.882
X126.65Y-136.897
X126.702Y-102.132
X127.262Y-50.244
X127.262Y-59.994
X127.262Y-189.871
X127.262Y-199.621
X127.92Y-116.577
X128.317Y-34.999
X128.317Y-174.626
X128.512Y-37.994
X128.512Y-177.621
X128.9Y-110.632
X128.9Y-131.267
X129.4Y-112.95
X129.587Y-41.349
X129.587Y-63.32
X129.587Y-180.976
X129.587Y-202.947
X129.65Y-99.185
X129.762Y-71.441
X129.762Y-211.068
X129.825Y-107.306
X129.825Y-129.277
X130.012Y-57.677
X130.012Y-197.303
X130.512Y-39.359
X130.512Y-59.994
X130.512Y-178.986
X130.512Y-199.621
X130.9Y-132.632
X131.095Y-135.627
X131.492Y-54.049
X131.492Y-193.676
X132.15Y-110.632
X132.15Y-120.382
X132.709Y-68.494
X132.709Y-208.121
X132.762Y-33.729
X132.762Y-173.356
X133.012Y-28.744
X133.012Y-168.371
X133.025Y-141.882
X133.15Y-101.882
X133.762Y-36.819
X133.762Y-109.846
X133.762Y-176.446
X133.841Y-27.57
X133.841Y-167.196
X134.15Y-112.882
X134.286Y-52.144
X134.286Y-59.002
X134.286Y-191.771
X134.286Y-198.629
X134.4Y-101.882
X135.65Y-110.882
X136.262Y-66.744
X136.262Y-206.371
X136.659Y-44.494
X136.659Y-184.121
X136.762Y-49.244
X136.762Y-188.871
X137.318Y-120.26
X137.512Y-38.744
X137.512Y-178.371
X137.65Y-131.382
X137.782Y-126.75
X137.9Y-124.382
X138.012Y-48.244
X138.012Y-187.871
X138.604Y-31.57
X138.604Y-171.197
X139.012Y-57.744
X139.012Y-197.371
X139.15Y-112.882
X140.9Y-129.882
X141.012Y-40.744
X141.012Y-180.371
X142.262Y-31.994
X142.262Y-171.621
X142.4Y-138.632
X146.213Y-101.807
X146.351Y-68.819
X146.351Y-208.445
X147.601Y-60.069
X147.601Y-199.695
X147.713Y-110.557
X149.463Y-127.557
X149.601Y-43.069
X149.601Y-182.695
X150.009Y-69.243
X150.009Y-208.869
X150.601Y-52.569
X150.601Y-192.195
X150.713Y-116.057
X150.831Y-113.69
X150.963Y-109.057
X151.101Y-62.069
X151.101Y-201.695
X151.295Y-120.179
X151.851Y-51.569
X151.851Y-191.195
X151.954Y-56.319
X151.954Y-195.945
X152.351Y-34.069
X152.351Y-173.695
X152.963Y-129.557
X154.213Y-138.557
X154.327Y-41.811
X154.327Y-48.669
X154.327Y-181.437
X154.327Y-188.295
X154.463Y-127.557
X154.772Y-73.243
X154.772Y-212.87
X154.851Y-63.994
X154.851Y-130.593
X154.851Y-203.62
X155.463Y-138.557
X155.588Y-98.557
X155.601Y-72.069
X155.601Y-211.695
X155.851Y-67.084
X155.851Y-206.71
X155.904Y-32.319
X155.904Y-171.945
X156.463Y-120.057
X156.463Y-129.807
X157.121Y-46.764
X157.121Y-186.39
X157.518Y-104.812
X157.713Y-107.807
X158.101Y-40.819
X158.101Y-61.454
X158.101Y-180.445
X158.101Y-201.08
X158.601Y-43.137
X158.601Y-182.763
X158.788Y-111.162
X158.788Y-133.133
X158.851Y-29.372
X158.851Y-168.998
X158.963Y-141.255
X159.026Y-37.493
X159.026Y-59.464
X159.026Y-177.119
X159.026Y-199.09
X159.213Y-127.49
X159.713Y-109.172
X159.713Y-129.807
X160.101Y-62.819
X160.101Y-202.445
X160.296Y-65.814
X160.296Y-205.44
X160.693Y-123.862
X161.351Y-40.819
X161.351Y-50.569
X161.351Y-180.445
X161.351Y-190.195
X161.91Y-138.307
X161.963Y-103.542
X162.213Y-98.557
X162.226Y-72.069
X162.226Y-211.695
X162.351Y-32.069
X162.351Y-171.695
X162.963Y-40.033
X162.963Y-106.632
X162.963Y-179.659
X163.043Y-97.383
X163.351Y-43.069
X163.351Y-182.695
X163.487Y-121.957
X163.487Y-128.815
X163.601Y-32.069
X163.601Y-171.695
X164.851Y-41.069
X164.851Y-180.695
X165.463Y-136.557
X165.861Y-114.307
X165.963Y-119.057
X166.519Y-50.447
X166.519Y-190.073
X166.713Y-108.557
X166.851Y-61.569
X166.851Y-201.195
X166.984Y-56.937
X166.984Y-196.563
X167.101Y-54.569
X167.101Y-194.195
X167.213Y-118.057
X167.805Y-101.383
X168.213Y-127.557
X168.351Y-43.069
X168.351Y-182.695
X170.101Y-60.069
X170.101Y-199.695
X170.213Y-110.557
X171.463Y-101.807
X171.601Y-68.819
X171.601Y-208.445
X175.415Y-31.994
X175.415Y-171.621
X175.553Y-138.632
X176.803Y-129.882
X176.915Y-40.744
X176.915Y-180.371
X178.665Y-57.744
X178.665Y-197.371
X178.803Y-112.882
X179.211Y-139.056
X179.803Y-122.382
X179.915Y-46.244
X179.915Y-185.871
X180.032Y-43.877
X180.032Y-183.503
X180.165Y-39.244
X180.165Y-178.871
X180.303Y-131.882
X180.497Y-50.366
X180.497Y-189.993
X181.053Y-121.382
X181.155Y-126.132
X181.553Y-103.882
X182.165Y-59.744
X182.165Y-199.371
X183.415Y-68.744
X183.415Y-208.371
X183.529Y-111.624
X183.529Y-118.482
X183.665Y-57.744
X183.665Y-197.371
X183.973Y-143.057
X184.053Y-60.78
X184.053Y-133.807
X184.053Y-200.407
X184.665Y-68.744
X184.665Y-208.371
X184.79Y-28.744
X184.79Y-168.371
X184.803Y-141.882
X185.053Y-136.897
X185.105Y-102.132
X185.665Y-50.244
X185.665Y-59.994
X185.665Y-189.871
X185.665Y-199.621
X186.323Y-116.577
X186.72Y-34.999
X186.72Y-174.626
X186.915Y-37.994
X186.915Y-177.621
X187.303Y-110.632
X187.303Y-131.267
X187.803Y-112.95
X187.99Y-41.349
X187.99Y-63.32
X187.99Y-180.976
X187.99Y-202.947
X188.053Y-99.185
X188.165Y-71.441
X188.165Y-211.068
X188.228Y-107.306
X188.228Y-129.277
X188.415Y-57.677
X188.415Y-197.303
X188.915Y-39.359
X188.915Y-59.994
X188.915Y-178.986
X188.915Y-199.621
X189.303Y-132.632
X189.498Y-135.627
X189.895Y-54.049
X189.895Y-193.676
X190.553Y-110.632
X190.553Y-120.382
X191.112Y-68.494
X191.112Y-208.121
X191.165Y-33.729
X191.165Y-173.356
X191.415Y-28.744
X191.415Y-168.371
X191.428Y-141.882
X191.553Y-101.882
X192.165Y-36.819
X192.165Y-109.846
X192.165Y-176.446
X192.244Y-27.57
X192.244Y-167.196
X192.553Y-112.882
X192.689Y-52.144
X192.689Y-59.002
X192.689Y-191.771
X192.689Y-198.629
X192.803Y-101.882
X194.053Y-110.882
X194.665Y-66.744
X194.665Y-206.371
X195.062Y-44.494
X195.062Y-184.121
X195.165Y-49.244
X195.165Y-188.871
X195.721Y-120.26
X195.915Y-38.744
X195.915Y-178.371
X196.053Y-131.382
X196.185Y-126.75
X196.303Y-124.382
X196.415Y-48.244
X196.415Y-187.871
X197.007Y-31.57
X197.007Y-171.197
X197.415Y-57.744
X197.415Y-197.371
X197.553Y-112.882
X199.303Y-129.882
X199.415Y-40.744
X199.415Y-180.371
X200.665Y-31.994
X200.665Y-171.621
X200.803Y-138.632
X204.616Y-101.807
X204.754Y-68.819
X204.754Y-208.445
X206.004Y-60.069
X206.004Y-199.695
X206.116Y-110.557
X207.866Y-127.557
X208.004Y-43.069
X208.004Y-182.695
X208.412Y-69.243
X208.412Y-208.869
X209.004Y-52.569
X209.004Y-192.195
X209.116Y-116.057
X209.234Y-113.69
X209.366Y-109.057
X209.504Y-62.069
X209.504Y-201.695
X209.698Y-120.179
X210.254Y-51.569
X210.254Y-191.195
X210.357Y-56.319
X210.357Y-195.945
X210.754Y-34.069
X210.754Y-173.695
X211.366Y-129.557
X212.616Y-138.557
X212.73Y-41.811
X212.73Y-48.669
X212.73Y-181.437
X212.73Y-188.295
X212.866Y-127.557
X213.175Y-73.243
X213.175Y-212.87
X213.254Y-63.994
X213.254Y-130.593
X213.254Y-203.62
X213.866Y-138.557
X213.991Y-98.557
X214.004Y-72.069
X214.004Y-211.695
X214.254Y-67.084
X214.254Y-206.71
X214.307Y-32.319
X214.307Y-171.945
X214.866Y-120.057
X214.866Y-129.807
X215.524Y-46.764
X215.524Y-186.39
X215.921Y-104.812
X216.116Y-107.807
X216.504Y-40.819
X216.504Y-61.454
X216.504Y-180.445
X216.504Y-201.08
X217.004Y-43.137
X217.004Y-182.763
X217.191Y-111.162
X217.191Y-133.133
X217.254Y-29.372
X217.254Y-168.998
X217.366Y-141.255
X217.429Y-37.493
X217.429Y-59.464
X217.429Y-177.119
X217.429Y-199.09
X217.616Y-127.49
X218.116Y-109.172
X218.116Y-129.807
X218.504Y-62.819
X218.504Y-202.445
X218.699Y-65.814
X218.699Y-205.44
X219.096Y-123.862
X219.754Y-40.819
X219.754Y-50.569
X219.754Y-180.445
X219.754Y-190.195
X220.314Y-138.307
X220.366Y-103.542
X220.616Y-98.557
X220.629Y-72.069
X220.629Y-211.695
X220.754Y-32.069
X220.754Y-171.695
X221.366Y-40.033
X221.366Y-106.632
X221.366Y-179.659
X221.446Y-97.383
X221.754Y-43.069
X221.754Y-182.695
X221.89Y-121.957
X221.89Y-128.815
X222.004Y-32.069
X222.004Y-171.695
X223.254Y-41.069
X223.254Y-180.695
X223.866Y-136.557
X224.264Y-114.307
X224.366Y-119.057
X224.922Y-50.447
X224.922Y-190.073
X225.116Y-108.557
X225.254Y-61.569
X225.254Y-201.195
X225.387Y-56.937
X225.387Y-196.563
X225.504Y-54.569
X225.504Y-194.195
X225.616Y-118.057
X226.208Y-101.383
X226.616Y-127.557
X226.754Y-43.069
X226.754Y-182.695
X228.504Y-60.069
X228.504Y-199.695
X228.616Y-110.557
X229.866Y-101.807
X230.004Y-68.819
X230.004Y-208.445
T2
X36.407Y-103.557
X36.407Y-104.827
X36.407Y-106.097
X36.407Y-107.367
X47.795Y-63.259
X47.795Y-64.529
X47.795Y-65.799
X47.795Y-67.069
X47.795Y-202.885
X47.795Y-204.155
X47.795Y-205.425
X47.795Y-206.695
X65.608Y-33.744
X65.608Y-35.014
X65.608Y-36.284
X65.608Y-37.554
X65.608Y-173.371
X65.608Y-174.641
X65.608Y-175.911
X65.608Y-177.181
X76.996Y-133.072
X76.996Y-134.342
X76.996Y-135.612
X76.996Y-136.882
X94.81Y-103.557
X94.81Y-104.827
X94.81Y-106.097
X94.81Y-107.367
X106.198Y-63.259
X106.198Y-64.529
X106.198Y-65.799
X106.198Y-67.069
X106.198Y-202.885
X106.198Y-204.155
X106.198Y-205.425
X106.198Y-206.695
X124.012Y-33.744
X124.012Y-35.014
X124.012Y-36.284
X124.012Y-37.554
X124.012Y-173.371
X124.012Y-174.641
X124.012Y-175.911
X124.012Y-177.181
X135.4Y-133.072
X135.4Y-134.342
X135.4Y-135.612
X135.4Y-136.882
X153.213Y-103.557
X153.213Y-104.827
X153.213Y-106.097
X153.213Y-107.367
X164.601Y-63.259
X164.601Y-64.529
X164.601Y-65.799
X164.601Y-67.069
X164.601Y-202.885
X164.601Y-204.155
X164.601Y-205.425
X164.601Y-206.695
X182.415Y-33.744
X182.415Y-35.014
X182.415Y-36.284
X182.415Y-37.554
X182.415Y-173.371
X182.415Y-174.641
X182.415Y-175.911
X182.415Y-177.181
X193.803Y-133.072
X193.803Y-134.342
X193.803Y-135.612
X193.803Y-136.882
X211.616Y-103.557
X211.616Y-104.827
X211.616Y-106.097
X211.616Y-107.367
X223.004Y-63.259
X223.004Y-64.529
X223.004Y-65.799
X223.004Y-67.069
X223.004Y-202.885
X223.004Y-204.155
X223.004Y-205.425
X223.004Y-206.695
T3
X41.971Y-96.696
X41.971Y-116.696
X42.231Y-53.93
X42.231Y-73.93
X42.231Y-193.556
X42.231Y-213.556
X71.172Y-26.883
X71.172Y-46.883
X71.172Y-166.51
X71.172Y-186.51
X71.432Y-123.743
X71.432Y-143.743
X100.374Y-96.696
X100.374Y-116.696
X100.634Y-53.93
X100.634Y-73.93
X100.634Y-193.556
X100.634Y-213.556
X129.576Y-26.883
X129.576Y-46.883
X129.576Y-166.51
X129.576Y-186.51
X129.836Y-123.743
X129.836Y-143.743
X158.777Y-96.696
X158.777Y-116.696
X159.037Y-53.93
X159.037Y-73.93
X159.037Y-193.556
X159.037Y-213.556
X187.979Y-26.883
X187.979Y-46.883
X187.979Y-166.51
X187.979Y-186.51
X188.239Y-123.743
X188.239Y-143.743
X217.18Y-96.696
X217.18Y-116.696
X217.44Y-53.93
X217.44Y-73.93
X217.44Y-193.556
X217.44Y-213.556
T4
X42.101Y-26.669
X42.101Y-143.957
X42.101Y-166.295
X71.302Y-74.144
X71.302Y-96.482
X71.302Y-213.771
X100.504Y-26.669
X100.504Y-143.957
X100.504Y-166.295
X129.706Y-74.144
X129.706Y-96.482
X129.706Y-213.771
X158.907Y-26.669
X158.907Y-143.957
X158.907Y-166.295
X188.109Y-74.144
X188.109Y-96.482
X188.109Y-213.771
X217.31Y-26.669
X217.31Y-143.957
X217.31Y-166.295
T0
M30
