G04 #@! TF.GenerationSoftware,KiCad,Pcbnew,(6.0.2)*
G04 #@! TF.CreationDate,2022-10-30T19:52:43+01:00*
G04 #@! TF.ProjectId,panel,70616e65-6c2e-46b6-9963-61645f706362,rev?*
G04 #@! TF.SameCoordinates,Original*
G04 #@! TF.FileFunction,Soldermask,Bot*
G04 #@! TF.FilePolarity,Negative*
%FSLAX46Y46*%
G04 Gerber Fmt 4.6, Leading zero omitted, Abs format (unit mm)*
G04 Created by KiCad (PCBNEW (6.0.2)) date 2022-10-30 19:52:43*
%MOMM*%
%LPD*%
G01*
G04 APERTURE LIST*
%ADD10C,0.500000*%
%ADD11R,1.000000X1.000000*%
%ADD12O,1.000000X1.000000*%
%ADD13R,2.100000X2.100000*%
%ADD14C,2.100000*%
G04 APERTURE END LIST*
D10*
X229344400Y-51049000D03*
X219929400Y-217939600D03*
D11*
X223004400Y-206695400D03*
D12*
X223004400Y-205425400D03*
X223004400Y-204155400D03*
X223004400Y-202885400D03*
D10*
X191727800Y-148126400D03*
X159526200Y-78313200D03*
X69683400Y-22500000D03*
X229446400Y-119687400D03*
X18500000Y-217439600D03*
X192489800Y-22500000D03*
X102123000Y-217939600D03*
X76434305Y-210113859D03*
X173508000Y-190033000D03*
X223093472Y-139442931D03*
X230026400Y-119167400D03*
X175392800Y-121272200D03*
X141291600Y-50424200D03*
X74683400Y-22500000D03*
X228074400Y-49859000D03*
X115104800Y-120219800D03*
X53534800Y-190055400D03*
X85903200Y-190033000D03*
X98123000Y-78313200D03*
X101885000Y-92313200D03*
X219691400Y-92313200D03*
X141291600Y-190050600D03*
X191489800Y-22500000D03*
X240911200Y-217439600D03*
X200244800Y-49874200D03*
X141841600Y-49874200D03*
X130324600Y-148126400D03*
X94069761Y-32041196D03*
X173508000Y-50406600D03*
X56701600Y-120219800D03*
X173508000Y-190033000D03*
X173508000Y-190033000D03*
X236411200Y-154126400D03*
X205876400Y-120197400D03*
X23000000Y-86313200D03*
X59868400Y-50384200D03*
X171661200Y-191255400D03*
X177344800Y-190580600D03*
X73921400Y-148126400D03*
X140469600Y-119672200D03*
D11*
X223004400Y-67069000D03*
D12*
X223004400Y-65799000D03*
X223004400Y-64529000D03*
X223004400Y-63259000D03*
D10*
X236411200Y-157126400D03*
X54816800Y-119167400D03*
X46481800Y-92313200D03*
D11*
X36406800Y-103557400D03*
D12*
X36406800Y-104827400D03*
X36406800Y-106097400D03*
X36406800Y-107367400D03*
D10*
X113220000Y-119167400D03*
X77085472Y-209256131D03*
D11*
X76996400Y-136882200D03*
D12*
X76996400Y-135612200D03*
X76996400Y-134342200D03*
X76996400Y-133072200D03*
D10*
X193891872Y-209256131D03*
X96123000Y-217939600D03*
X164039105Y-140300659D03*
X236411200Y-83313200D03*
X30666800Y-120197400D03*
X186727800Y-148126400D03*
X56701600Y-190033000D03*
X183489800Y-22500000D03*
X100123000Y-78313200D03*
X43719800Y-217939600D03*
X163288200Y-92313200D03*
X134086600Y-162126400D03*
X199694800Y-190050600D03*
X23000000Y-87313200D03*
D11*
X47794800Y-206695400D03*
D12*
X47794800Y-205425400D03*
X47794800Y-204155400D03*
X47794800Y-202885400D03*
D10*
X96123000Y-78313200D03*
X130086600Y-22500000D03*
X170341200Y-190055400D03*
X69683400Y-162126400D03*
X216691400Y-92313200D03*
X189727800Y-148126400D03*
X94069761Y-171667595D03*
X223744638Y-138585204D03*
X133086600Y-162126400D03*
X38719800Y-217939600D03*
X23000000Y-83313200D03*
X45719800Y-217939600D03*
X213691400Y-92313200D03*
X106287072Y-139442931D03*
X30514800Y-50389000D03*
X189489800Y-22500000D03*
X54134800Y-190675400D03*
X56701600Y-190033000D03*
X147321200Y-50389000D03*
X104123000Y-217939600D03*
X153124127Y-170809868D03*
X103885000Y-92313200D03*
X38719800Y-78313200D03*
X161526200Y-217939600D03*
X106938238Y-138585204D03*
X116989600Y-121272200D03*
X35666562Y-32041196D03*
X146191200Y-191085400D03*
X217929400Y-217939600D03*
X128324600Y-148126400D03*
X111938000Y-50429000D03*
X236411200Y-84313200D03*
X87788000Y-51459000D03*
X154288200Y-92313200D03*
X103123000Y-217939600D03*
X202709600Y-120219800D03*
X82248400Y-190590600D03*
X23544800Y-50399000D03*
X176522800Y-120202200D03*
X126086600Y-162126400D03*
X100885000Y-92313200D03*
X24656800Y-120227400D03*
X128086600Y-22500000D03*
X94720927Y-31183469D03*
X70683400Y-162126400D03*
X71683400Y-22500000D03*
X199542800Y-120242200D03*
X192727800Y-148126400D03*
X19500000Y-23000000D03*
X171623200Y-119167400D03*
X173508000Y-120219800D03*
X210876161Y-171667595D03*
X41719800Y-217939600D03*
X144306400Y-120219800D03*
X99123000Y-78313200D03*
X230064400Y-51629000D03*
X69921400Y-148126400D03*
X199054800Y-50964200D03*
X42481800Y-92313200D03*
X142421600Y-188980600D03*
X159526200Y-217939600D03*
X147961200Y-49849000D03*
X66683400Y-162126400D03*
X29384800Y-51459000D03*
X127086600Y-162126400D03*
X199694800Y-50424200D03*
X236411200Y-153126400D03*
X58548400Y-188810600D03*
X76434305Y-70487459D03*
X141841600Y-189500600D03*
X146873200Y-119577400D03*
X218929400Y-217939600D03*
X192489800Y-162126400D03*
X68683400Y-162126400D03*
X204594400Y-191085400D03*
X183489800Y-162126400D03*
X211527327Y-31183469D03*
X67921400Y-148126400D03*
X115104800Y-120219800D03*
X72683400Y-162126400D03*
D11*
X164601200Y-206695400D03*
D12*
X164601200Y-205425400D03*
X164601200Y-204155400D03*
X164601200Y-202885400D03*
D10*
X181674561Y-101854395D03*
X54236800Y-119687400D03*
X212178494Y-169952140D03*
D11*
X65608400Y-173370600D03*
D12*
X65608400Y-174640600D03*
X65608400Y-175910600D03*
X65608400Y-177180600D03*
D10*
X158288200Y-92313200D03*
X37481800Y-92313200D03*
X117671600Y-49764200D03*
X39481800Y-92313200D03*
X112538000Y-190675400D03*
X68683400Y-22500000D03*
X47883872Y-139442931D03*
X53534800Y-50429000D03*
X44481800Y-92313200D03*
X157526200Y-217939600D03*
X146771200Y-50939000D03*
X184489800Y-22500000D03*
X111268000Y-189485400D03*
X59268400Y-49764200D03*
X23000000Y-155126400D03*
X156526200Y-78313200D03*
X118941600Y-50954200D03*
X56701600Y-120219800D03*
X88918000Y-190015400D03*
X236411200Y-85313200D03*
X47232705Y-140300659D03*
X85903200Y-50406600D03*
X84018400Y-188980600D03*
X228256400Y-120777400D03*
X126324600Y-148126400D03*
X85903200Y-120219800D03*
X189489800Y-162126400D03*
X54854800Y-51629000D03*
X173508000Y-50406600D03*
X202709600Y-120219800D03*
X202709600Y-190033000D03*
X94720927Y-170809868D03*
X116951600Y-49184200D03*
X40719800Y-78313200D03*
X56701600Y-50406600D03*
X202709600Y-50406600D03*
X23000000Y-156126400D03*
X136139838Y-68772004D03*
X82888400Y-50424200D03*
X15500000Y-217439600D03*
X217929400Y-78313200D03*
X191489800Y-162126400D03*
X185727800Y-148126400D03*
X140651600Y-50964200D03*
X133086600Y-22500000D03*
X165341438Y-138585204D03*
X146191200Y-51459000D03*
X77736638Y-68772004D03*
X59716400Y-120202200D03*
X66170494Y-100138940D03*
X173508000Y-120219800D03*
X84056400Y-121442200D03*
X44719800Y-217939600D03*
X116951600Y-188810600D03*
X128086600Y-162126400D03*
D11*
X182414800Y-33744200D03*
D12*
X182414800Y-35014200D03*
X182414800Y-36284200D03*
X182414800Y-37554200D03*
D10*
X95372094Y-30325741D03*
X156526200Y-217939600D03*
X75683400Y-22500000D03*
X115104800Y-120219800D03*
X100123000Y-217939600D03*
X170941200Y-51049000D03*
X210876161Y-32041196D03*
X202709600Y-190033000D03*
X41481800Y-92313200D03*
X236411200Y-156126400D03*
X115104800Y-50406600D03*
X228074400Y-189485400D03*
X131324600Y-148126400D03*
X164690272Y-139442931D03*
X104123000Y-78313200D03*
X129324600Y-148126400D03*
X16500000Y-23000000D03*
X175354800Y-49184200D03*
X132324600Y-148126400D03*
D11*
X47794800Y-67069000D03*
D12*
X47794800Y-65799000D03*
X47794800Y-64529000D03*
X47794800Y-63259000D03*
D10*
X169853200Y-120777400D03*
X169671200Y-189485400D03*
X186489800Y-22500000D03*
X59868400Y-190010600D03*
X158526200Y-78313200D03*
X215929400Y-78313200D03*
X182976894Y-100138940D03*
X23000000Y-153126400D03*
D11*
X94810000Y-103557400D03*
D12*
X94810000Y-104827400D03*
X94810000Y-106097400D03*
X94810000Y-107367400D03*
D10*
X190727800Y-148126400D03*
X147961200Y-189475400D03*
X17500000Y-217439600D03*
X85903200Y-120219800D03*
X98123000Y-217939600D03*
X52864800Y-49859000D03*
X31154800Y-49849000D03*
X103123000Y-78313200D03*
X160526200Y-78313200D03*
X66683400Y-22500000D03*
X85903200Y-50406600D03*
X152472961Y-171667595D03*
X202709600Y-190033000D03*
X43719800Y-78313200D03*
D11*
X106198000Y-206695400D03*
D12*
X106198000Y-205425400D03*
X106198000Y-204155400D03*
X106198000Y-202885400D03*
D10*
X68921400Y-148126400D03*
X200142800Y-120862200D03*
X39719800Y-217939600D03*
X136139838Y-208398404D03*
X202709600Y-50406600D03*
X72683400Y-22500000D03*
X112090000Y-120237400D03*
X75683400Y-162126400D03*
X241911200Y-217439600D03*
X46719800Y-217939600D03*
X220691400Y-92313200D03*
X118941600Y-190580600D03*
X200824800Y-188980600D03*
X204556400Y-118997400D03*
X155526200Y-217939600D03*
X147473200Y-120197400D03*
X36317728Y-31183469D03*
X205174400Y-190565400D03*
X163526200Y-217939600D03*
X173508000Y-50406600D03*
X40481800Y-92313200D03*
X160526200Y-217939600D03*
X144306400Y-50406600D03*
X87788000Y-191085400D03*
X104885000Y-92313200D03*
X97123000Y-217939600D03*
X118759600Y-119662200D03*
X228744400Y-50429000D03*
D11*
X182414800Y-173370600D03*
D12*
X182414800Y-174640600D03*
X182414800Y-175910600D03*
X182414800Y-177180600D03*
D11*
X124011600Y-173370600D03*
D12*
X124011600Y-174640600D03*
X124011600Y-175910600D03*
X124011600Y-177180600D03*
D10*
X37719800Y-217939600D03*
X113258000Y-191255400D03*
X85903200Y-190033000D03*
X153775294Y-169952140D03*
X83438400Y-49874200D03*
X240911200Y-23000000D03*
X17500000Y-23000000D03*
X177344800Y-50954200D03*
X23000000Y-154126400D03*
X228896400Y-120237400D03*
X112538000Y-51049000D03*
X154526200Y-217939600D03*
X170341200Y-50429000D03*
X135488672Y-69629731D03*
X218691400Y-92313200D03*
X124573694Y-100138940D03*
X144306400Y-50406600D03*
X95372094Y-169952140D03*
X156288200Y-92313200D03*
X127086600Y-22500000D03*
X193240705Y-210113859D03*
X31336800Y-120767400D03*
X212691400Y-92313200D03*
X115104800Y-50406600D03*
X74921400Y-148126400D03*
X36968895Y-169952140D03*
X95885000Y-92313200D03*
X58548400Y-49184200D03*
X45719800Y-78313200D03*
X134086600Y-22500000D03*
X234754400Y-190025400D03*
X56701600Y-190033000D03*
X56701600Y-50406600D03*
X175354800Y-188810600D03*
X202709600Y-120219800D03*
X85903200Y-190033000D03*
X71921400Y-148126400D03*
X71683400Y-162126400D03*
X205174400Y-50939000D03*
X127324600Y-148126400D03*
X131086600Y-22500000D03*
X123271361Y-101854395D03*
D11*
X193802800Y-136882200D03*
D12*
X193802800Y-135612200D03*
X193802800Y-134342200D03*
X193802800Y-133072200D03*
D10*
X115104800Y-190033000D03*
X242911200Y-217439600D03*
X236411200Y-87313200D03*
X206364400Y-49849000D03*
X44719800Y-78313200D03*
X202709600Y-120219800D03*
X147321200Y-190015400D03*
X129086600Y-162126400D03*
X85903200Y-50406600D03*
X220929400Y-78313200D03*
X243911200Y-217439600D03*
X97123000Y-78313200D03*
X39719800Y-78313200D03*
X82248400Y-50964200D03*
X23000000Y-84313200D03*
X111450000Y-120777400D03*
X148143200Y-120767400D03*
X175972800Y-120752200D03*
X199054800Y-190590600D03*
X170941200Y-190675400D03*
X144306400Y-120219800D03*
X111938000Y-190055400D03*
X215929400Y-217939600D03*
X115104800Y-190033000D03*
X144306400Y-50406600D03*
X36968895Y-30325741D03*
X235866400Y-120227400D03*
X75921400Y-148126400D03*
X173508000Y-120219800D03*
X221929400Y-217939600D03*
X185489800Y-22500000D03*
X66921400Y-148126400D03*
X193891872Y-69629731D03*
X214691400Y-92313200D03*
X190489800Y-162126400D03*
X29964800Y-190565400D03*
X41719800Y-78313200D03*
X221691400Y-92313200D03*
X144306400Y-190033000D03*
X123922527Y-100996668D03*
X60356400Y-119662200D03*
D11*
X164601200Y-67069000D03*
D12*
X164601200Y-65799000D03*
X164601200Y-64529000D03*
X164601200Y-63259000D03*
D10*
X234754400Y-50399000D03*
X16500000Y-217439600D03*
X170493200Y-120237400D03*
X158526200Y-217939600D03*
X216929400Y-217939600D03*
X83336400Y-120862200D03*
X31154800Y-189475400D03*
X188489800Y-162126400D03*
X169671200Y-49859000D03*
X153124127Y-31183469D03*
X144306400Y-120219800D03*
D11*
X211616400Y-103557400D03*
D12*
X211616400Y-104827400D03*
X211616400Y-106097400D03*
X211616400Y-107367400D03*
D10*
X15500000Y-23000000D03*
X205724400Y-190015400D03*
X205724400Y-50389000D03*
X85903200Y-190033000D03*
X173508000Y-190033000D03*
X188489800Y-22500000D03*
X212929400Y-217939600D03*
X101123000Y-217939600D03*
X187489800Y-22500000D03*
X67683400Y-22500000D03*
X206364400Y-189475400D03*
D11*
X153213200Y-103557400D03*
D12*
X153213200Y-104827400D03*
X153213200Y-106097400D03*
X153213200Y-107367400D03*
D10*
X99123000Y-217939600D03*
X88918000Y-50389000D03*
X194543038Y-68772004D03*
X105635905Y-140300659D03*
X56701600Y-120219800D03*
X132086600Y-22500000D03*
X162288200Y-92313200D03*
X118271600Y-50384200D03*
X236411200Y-155126400D03*
X221929400Y-78313200D03*
X53046800Y-120777400D03*
X193240705Y-70487459D03*
X157288200Y-92313200D03*
X77736638Y-208398404D03*
X64868161Y-101854395D03*
X183727800Y-148126400D03*
X97885000Y-92313200D03*
X214929400Y-217939600D03*
X29384800Y-191085400D03*
X153775294Y-30325741D03*
X146153200Y-118997400D03*
X53686800Y-120237400D03*
X23000000Y-157126400D03*
X73683400Y-22500000D03*
X40719800Y-217939600D03*
X228744400Y-190055400D03*
X83438400Y-189500600D03*
X99885000Y-92313200D03*
X163526200Y-78313200D03*
X54134800Y-51049000D03*
X125086600Y-162126400D03*
X171043200Y-119687400D03*
X159288200Y-92313200D03*
X186489800Y-162126400D03*
X230064400Y-191255400D03*
X23000000Y-85313200D03*
X229344400Y-190675400D03*
X85903200Y-120219800D03*
X187727800Y-148126400D03*
X144306400Y-190033000D03*
X241911200Y-23000000D03*
X176674800Y-190010600D03*
X243911200Y-23000000D03*
X176074800Y-189390600D03*
X219929400Y-78313200D03*
X38481800Y-92313200D03*
X125324600Y-148126400D03*
X29346800Y-118997400D03*
X134324600Y-148126400D03*
X101123000Y-78313200D03*
X70683400Y-22500000D03*
X29964800Y-50939000D03*
X115104800Y-50406600D03*
X88470000Y-119577400D03*
X125086600Y-22500000D03*
X18500000Y-23000000D03*
X58586400Y-121272200D03*
X131086600Y-162126400D03*
X117671600Y-189390600D03*
X48535038Y-138585204D03*
X88368000Y-190565400D03*
X102885000Y-92313200D03*
X155526200Y-78313200D03*
X42719800Y-78313200D03*
D11*
X65608400Y-33744200D03*
D12*
X65608400Y-35014200D03*
X65608400Y-36284200D03*
X65608400Y-37554200D03*
D10*
X206546400Y-120767400D03*
X132086600Y-162126400D03*
X77085472Y-69629731D03*
X144306400Y-120219800D03*
X60538400Y-190580600D03*
X59268400Y-189390600D03*
X115104800Y-190033000D03*
X142421600Y-49354200D03*
X30066800Y-119577400D03*
X213929400Y-78313200D03*
X74683400Y-162126400D03*
X212929400Y-78313200D03*
X190489800Y-22500000D03*
X173508000Y-50406600D03*
X202709600Y-50406600D03*
X194543038Y-208398404D03*
X160288200Y-92313200D03*
D11*
X124011600Y-33744200D03*
D12*
X124011600Y-35014200D03*
X124011600Y-36284200D03*
X124011600Y-37554200D03*
D10*
X182325727Y-100996668D03*
X205276400Y-119577400D03*
X176074800Y-49764200D03*
X37719800Y-78313200D03*
X213929400Y-217939600D03*
X115104800Y-50406600D03*
X188727800Y-148126400D03*
X176674800Y-50384200D03*
D11*
X135399600Y-136882200D03*
D12*
X135399600Y-135612200D03*
X135399600Y-134342200D03*
X135399600Y-133072200D03*
D10*
X236411200Y-86313200D03*
X46719800Y-78313200D03*
X85903200Y-50406600D03*
X67683400Y-162126400D03*
X161526200Y-78313200D03*
X144306400Y-190033000D03*
X102123000Y-78313200D03*
X54854800Y-191255400D03*
X45481800Y-92313200D03*
X184489800Y-162126400D03*
X141739600Y-120862200D03*
X56701600Y-50406600D03*
X87750000Y-118997400D03*
X36317728Y-170809868D03*
X133324600Y-148126400D03*
X215691400Y-92313200D03*
X202709600Y-190033000D03*
X56701600Y-190033000D03*
X117569600Y-120752200D03*
X65519327Y-100996668D03*
X82888400Y-190050600D03*
X220929400Y-217939600D03*
X204594400Y-51459000D03*
X154526200Y-78313200D03*
X84018400Y-49354200D03*
X112640000Y-119687400D03*
X187489800Y-162126400D03*
X111268000Y-49859000D03*
X218929400Y-78313200D03*
X173508000Y-120219800D03*
X222442305Y-140300659D03*
X152472961Y-32041196D03*
X105123000Y-217939600D03*
X118119600Y-120202200D03*
X144306400Y-190033000D03*
X82736400Y-120242200D03*
X200824800Y-49354200D03*
X118271600Y-190010600D03*
X135488672Y-209256131D03*
X162526200Y-78313200D03*
X162526200Y-217939600D03*
X85903200Y-120219800D03*
X140651600Y-190590600D03*
X217691400Y-92313200D03*
X70921400Y-148126400D03*
X42719800Y-217939600D03*
X141139600Y-120242200D03*
X35666562Y-171667595D03*
X184727800Y-148126400D03*
X52864800Y-189485400D03*
X146771200Y-190565400D03*
X185489800Y-162126400D03*
X129086600Y-22500000D03*
X155288200Y-92313200D03*
D11*
X106198000Y-67069000D03*
D12*
X106198000Y-65799000D03*
X106198000Y-64529000D03*
X106198000Y-63259000D03*
D10*
X73683400Y-162126400D03*
X43481800Y-92313200D03*
X242911200Y-23000000D03*
X115104800Y-120219800D03*
X115104800Y-190033000D03*
X134837505Y-70487459D03*
X98885000Y-92313200D03*
X134837505Y-210113859D03*
X239911200Y-217439600D03*
X126086600Y-22500000D03*
X214929400Y-78313200D03*
X161288200Y-92313200D03*
X56701600Y-120219800D03*
X19500000Y-217439600D03*
X157526200Y-78313200D03*
X113258000Y-51629000D03*
X212178494Y-30325741D03*
X96885000Y-92313200D03*
X59166400Y-120752200D03*
X177162800Y-119662200D03*
X211527327Y-170809868D03*
X60538400Y-50954200D03*
X200244800Y-189500600D03*
X142459600Y-121442200D03*
X82066400Y-119672200D03*
X72921400Y-148126400D03*
X30514800Y-190015400D03*
X105123000Y-78313200D03*
X56701600Y-50406600D03*
X200862800Y-121442200D03*
X202709600Y-50406600D03*
X198872800Y-119672200D03*
X23544800Y-190025400D03*
X144306400Y-50406600D03*
X89070000Y-120197400D03*
X171661200Y-51629000D03*
X216929400Y-78313200D03*
X88368000Y-50939000D03*
X89558000Y-49849000D03*
X239911200Y-23000000D03*
X89558000Y-189475400D03*
X89740000Y-120767400D03*
X130086600Y-162126400D03*
D13*
X158777200Y-96696400D03*
D14*
X158777200Y-116696400D03*
D13*
X187978800Y-166509600D03*
D14*
X187978800Y-186509600D03*
D13*
X188238800Y-143743200D03*
D14*
X188238800Y-123743200D03*
D13*
X42230800Y-213556400D03*
D14*
X42230800Y-193556400D03*
D13*
X159037200Y-73930000D03*
D14*
X159037200Y-53930000D03*
D13*
X100634000Y-73930000D03*
D14*
X100634000Y-53930000D03*
D13*
X187978800Y-26883200D03*
D14*
X187978800Y-46883200D03*
D13*
X129575600Y-26883200D03*
D14*
X129575600Y-46883200D03*
D13*
X159037200Y-213556400D03*
D14*
X159037200Y-193556400D03*
D13*
X42230800Y-73930000D03*
D14*
X42230800Y-53930000D03*
D13*
X71172400Y-26883200D03*
D14*
X71172400Y-46883200D03*
D13*
X71172400Y-166509600D03*
D14*
X71172400Y-186509600D03*
D13*
X129835600Y-143743200D03*
D14*
X129835600Y-123743200D03*
D13*
X71432400Y-143743200D03*
D14*
X71432400Y-123743200D03*
D13*
X100374000Y-96696400D03*
D14*
X100374000Y-116696400D03*
D13*
X129575600Y-166509600D03*
D14*
X129575600Y-186509600D03*
D13*
X41970800Y-96696400D03*
D14*
X41970800Y-116696400D03*
D13*
X217180400Y-96696400D03*
D14*
X217180400Y-116696400D03*
D13*
X217440400Y-213556400D03*
D14*
X217440400Y-193556400D03*
D13*
X100634000Y-213556400D03*
D14*
X100634000Y-193556400D03*
D13*
X217440400Y-73930000D03*
D14*
X217440400Y-53930000D03*
M02*
