M48
; DRILL file {KiCad (6.0.2)} date Sun Oct 30 19:53:11 2022
; FORMAT={-:-/ absolute / metric / decimal}
; #@! TF.CreationDate,2022-10-30T19:53:11+01:00
; #@! TF.GenerationSoftware,Kicad,Pcbnew,(6.0.2)
; #@! TF.FileFunction,NonPlated,1,2,NPTH
FMAT,2
METRIC
; #@! TA.AperFunction,NonPlated,NPTH,ComponentDrill
T1C0.500
%
G90
G05
T1
X15.5Y-23.0
X15.5Y-217.44
X16.5Y-23.0
X16.5Y-217.44
X17.5Y-23.0
X17.5Y-217.44
X18.5Y-23.0
X18.5Y-217.44
X19.5Y-23.0
X19.5Y-217.44
X23.0Y-83.313
X23.0Y-84.313
X23.0Y-85.313
X23.0Y-86.313
X23.0Y-87.313
X23.0Y-153.126
X23.0Y-154.126
X23.0Y-155.126
X23.0Y-156.126
X23.0Y-157.126
X23.545Y-50.399
X23.545Y-190.025
X24.657Y-120.227
X29.347Y-118.997
X29.385Y-51.459
X29.385Y-191.085
X29.965Y-50.939
X29.965Y-190.565
X30.067Y-119.577
X30.515Y-50.389
X30.515Y-190.015
X30.667Y-120.197
X31.155Y-49.849
X31.155Y-189.475
X31.337Y-120.767
X35.667Y-32.041
X35.667Y-171.668
X36.318Y-31.183
X36.318Y-170.81
X36.969Y-30.326
X36.969Y-169.952
X37.482Y-92.313
X37.72Y-78.313
X37.72Y-217.94
X38.482Y-92.313
X38.72Y-78.313
X38.72Y-217.94
X39.482Y-92.313
X39.72Y-78.313
X39.72Y-217.94
X40.482Y-92.313
X40.72Y-78.313
X40.72Y-217.94
X41.482Y-92.313
X41.72Y-78.313
X41.72Y-217.94
X42.482Y-92.313
X42.72Y-78.313
X42.72Y-217.94
X43.482Y-92.313
X43.72Y-78.313
X43.72Y-217.94
X44.482Y-92.313
X44.72Y-78.313
X44.72Y-217.94
X45.482Y-92.313
X45.72Y-78.313
X45.72Y-217.94
X46.482Y-92.313
X46.72Y-78.313
X46.72Y-217.94
X47.233Y-140.301
X47.884Y-139.443
X48.535Y-138.585
X52.865Y-49.859
X52.865Y-189.485
X53.047Y-120.777
X53.535Y-50.429
X53.535Y-190.055
X53.687Y-120.237
X54.135Y-51.049
X54.135Y-190.675
X54.237Y-119.687
X54.817Y-119.167
X54.855Y-51.629
X54.855Y-191.255
X56.702Y-50.407
X56.702Y-50.407
X56.702Y-50.407
X56.702Y-50.407
X56.702Y-120.22
X56.702Y-120.22
X56.702Y-120.22
X56.702Y-120.22
X56.702Y-190.033
X56.702Y-190.033
X56.702Y-190.033
X56.702Y-190.033
X58.548Y-49.184
X58.548Y-188.811
X58.586Y-121.272
X59.166Y-120.752
X59.268Y-49.764
X59.268Y-189.391
X59.716Y-120.202
X59.868Y-50.384
X59.868Y-190.011
X60.356Y-119.662
X60.538Y-50.954
X60.538Y-190.581
X64.868Y-101.854
X65.519Y-100.997
X66.17Y-100.139
X66.683Y-22.5
X66.683Y-162.126
X66.921Y-148.126
X67.683Y-22.5
X67.683Y-162.126
X67.921Y-148.126
X68.683Y-22.5
X68.683Y-162.126
X68.921Y-148.126
X69.683Y-22.5
X69.683Y-162.126
X69.921Y-148.126
X70.683Y-22.5
X70.683Y-162.126
X70.921Y-148.126
X71.683Y-22.5
X71.683Y-162.126
X71.921Y-148.126
X72.683Y-22.5
X72.683Y-162.126
X72.921Y-148.126
X73.683Y-22.5
X73.683Y-162.126
X73.921Y-148.126
X74.683Y-22.5
X74.683Y-162.126
X74.921Y-148.126
X75.683Y-22.5
X75.683Y-162.126
X75.921Y-148.126
X76.434Y-70.487
X76.434Y-210.114
X77.085Y-69.63
X77.085Y-209.256
X77.737Y-68.772
X77.737Y-208.398
X82.066Y-119.672
X82.248Y-50.964
X82.248Y-190.591
X82.736Y-120.242
X82.888Y-50.424
X82.888Y-190.051
X83.336Y-120.862
X83.438Y-49.874
X83.438Y-189.501
X84.018Y-49.354
X84.018Y-188.981
X84.056Y-121.442
X85.903Y-50.407
X85.903Y-50.407
X85.903Y-50.407
X85.903Y-50.407
X85.903Y-120.22
X85.903Y-120.22
X85.903Y-120.22
X85.903Y-120.22
X85.903Y-190.033
X85.903Y-190.033
X85.903Y-190.033
X85.903Y-190.033
X87.75Y-118.997
X87.788Y-51.459
X87.788Y-191.085
X88.368Y-50.939
X88.368Y-190.565
X88.47Y-119.577
X88.918Y-50.389
X88.918Y-190.015
X89.07Y-120.197
X89.558Y-49.849
X89.558Y-189.475
X89.74Y-120.767
X94.07Y-32.041
X94.07Y-171.668
X94.721Y-31.183
X94.721Y-170.81
X95.372Y-30.326
X95.372Y-169.952
X95.885Y-92.313
X96.123Y-78.313
X96.123Y-217.94
X96.885Y-92.313
X97.123Y-78.313
X97.123Y-217.94
X97.885Y-92.313
X98.123Y-78.313
X98.123Y-217.94
X98.885Y-92.313
X99.123Y-78.313
X99.123Y-217.94
X99.885Y-92.313
X100.123Y-78.313
X100.123Y-217.94
X100.885Y-92.313
X101.123Y-78.313
X101.123Y-217.94
X101.885Y-92.313
X102.123Y-78.313
X102.123Y-217.94
X102.885Y-92.313
X103.123Y-78.313
X103.123Y-217.94
X103.885Y-92.313
X104.123Y-78.313
X104.123Y-217.94
X104.885Y-92.313
X105.123Y-78.313
X105.123Y-217.94
X105.636Y-140.301
X106.287Y-139.443
X106.938Y-138.585
X111.268Y-49.859
X111.268Y-189.485
X111.45Y-120.777
X111.938Y-50.429
X111.938Y-190.055
X112.09Y-120.237
X112.538Y-51.049
X112.538Y-190.675
X112.64Y-119.687
X113.22Y-119.167
X113.258Y-51.629
X113.258Y-191.255
X115.105Y-50.407
X115.105Y-50.407
X115.105Y-50.407
X115.105Y-50.407
X115.105Y-120.22
X115.105Y-120.22
X115.105Y-120.22
X115.105Y-120.22
X115.105Y-190.033
X115.105Y-190.033
X115.105Y-190.033
X115.105Y-190.033
X116.952Y-49.184
X116.952Y-188.811
X116.99Y-121.272
X117.57Y-120.752
X117.672Y-49.764
X117.672Y-189.391
X118.12Y-120.202
X118.272Y-50.384
X118.272Y-190.011
X118.76Y-119.662
X118.942Y-50.954
X118.942Y-190.581
X123.271Y-101.854
X123.923Y-100.997
X124.574Y-100.139
X125.087Y-22.5
X125.087Y-162.126
X125.325Y-148.126
X126.087Y-22.5
X126.087Y-162.126
X126.325Y-148.126
X127.087Y-22.5
X127.087Y-162.126
X127.325Y-148.126
X128.087Y-22.5
X128.087Y-162.126
X128.325Y-148.126
X129.087Y-22.5
X129.087Y-162.126
X129.325Y-148.126
X130.087Y-22.5
X130.087Y-162.126
X130.325Y-148.126
X131.087Y-22.5
X131.087Y-162.126
X131.325Y-148.126
X132.087Y-22.5
X132.087Y-162.126
X132.325Y-148.126
X133.087Y-22.5
X133.087Y-162.126
X133.325Y-148.126
X134.087Y-22.5
X134.087Y-162.126
X134.325Y-148.126
X134.838Y-70.487
X134.838Y-210.114
X135.489Y-69.63
X135.489Y-209.256
X136.14Y-68.772
X136.14Y-208.398
X140.47Y-119.672
X140.652Y-50.964
X140.652Y-190.591
X141.14Y-120.242
X141.292Y-50.424
X141.292Y-190.051
X141.74Y-120.862
X141.842Y-49.874
X141.842Y-189.501
X142.422Y-49.354
X142.422Y-188.981
X142.46Y-121.442
X144.306Y-50.407
X144.306Y-50.407
X144.306Y-50.407
X144.306Y-50.407
X144.306Y-120.22
X144.306Y-120.22
X144.306Y-120.22
X144.306Y-120.22
X144.306Y-190.033
X144.306Y-190.033
X144.306Y-190.033
X144.306Y-190.033
X146.153Y-118.997
X146.191Y-51.459
X146.191Y-191.085
X146.771Y-50.939
X146.771Y-190.565
X146.873Y-119.577
X147.321Y-50.389
X147.321Y-190.015
X147.473Y-120.197
X147.961Y-49.849
X147.961Y-189.475
X148.143Y-120.767
X152.473Y-32.041
X152.473Y-171.668
X153.124Y-31.183
X153.124Y-170.81
X153.775Y-30.326
X153.775Y-169.952
X154.288Y-92.313
X154.526Y-78.313
X154.526Y-217.94
X155.288Y-92.313
X155.526Y-78.313
X155.526Y-217.94
X156.288Y-92.313
X156.526Y-78.313
X156.526Y-217.94
X157.288Y-92.313
X157.526Y-78.313
X157.526Y-217.94
X158.288Y-92.313
X158.526Y-78.313
X158.526Y-217.94
X159.288Y-92.313
X159.526Y-78.313
X159.526Y-217.94
X160.288Y-92.313
X160.526Y-78.313
X160.526Y-217.94
X161.288Y-92.313
X161.526Y-78.313
X161.526Y-217.94
X162.288Y-92.313
X162.526Y-78.313
X162.526Y-217.94
X163.288Y-92.313
X163.526Y-78.313
X163.526Y-217.94
X164.039Y-140.301
X164.69Y-139.443
X165.341Y-138.585
X169.671Y-49.859
X169.671Y-189.485
X169.853Y-120.777
X170.341Y-50.429
X170.341Y-190.055
X170.493Y-120.237
X170.941Y-51.049
X170.941Y-190.675
X171.043Y-119.687
X171.623Y-119.167
X171.661Y-51.629
X171.661Y-191.255
X173.508Y-50.407
X173.508Y-50.407
X173.508Y-50.407
X173.508Y-50.407
X173.508Y-120.22
X173.508Y-120.22
X173.508Y-120.22
X173.508Y-120.22
X173.508Y-190.033
X173.508Y-190.033
X173.508Y-190.033
X173.508Y-190.033
X175.355Y-49.184
X175.355Y-188.811
X175.393Y-121.272
X175.973Y-120.752
X176.075Y-49.764
X176.075Y-189.391
X176.523Y-120.202
X176.675Y-50.384
X176.675Y-190.011
X177.163Y-119.662
X177.345Y-50.954
X177.345Y-190.581
X181.675Y-101.854
X182.326Y-100.997
X182.977Y-100.139
X183.49Y-22.5
X183.49Y-162.126
X183.728Y-148.126
X184.49Y-22.5
X184.49Y-162.126
X184.728Y-148.126
X185.49Y-22.5
X185.49Y-162.126
X185.728Y-148.126
X186.49Y-22.5
X186.49Y-162.126
X186.728Y-148.126
X187.49Y-22.5
X187.49Y-162.126
X187.728Y-148.126
X188.49Y-22.5
X188.49Y-162.126
X188.728Y-148.126
X189.49Y-22.5
X189.49Y-162.126
X189.728Y-148.126
X190.49Y-22.5
X190.49Y-162.126
X190.728Y-148.126
X191.49Y-22.5
X191.49Y-162.126
X191.728Y-148.126
X192.49Y-22.5
X192.49Y-162.126
X192.728Y-148.126
X193.241Y-70.487
X193.241Y-210.114
X193.892Y-69.63
X193.892Y-209.256
X194.543Y-68.772
X194.543Y-208.398
X198.873Y-119.672
X199.055Y-50.964
X199.055Y-190.591
X199.543Y-120.242
X199.695Y-50.424
X199.695Y-190.051
X200.143Y-120.862
X200.245Y-49.874
X200.245Y-189.501
X200.825Y-49.354
X200.825Y-188.981
X200.863Y-121.442
X202.71Y-50.407
X202.71Y-50.407
X202.71Y-50.407
X202.71Y-50.407
X202.71Y-120.22
X202.71Y-120.22
X202.71Y-120.22
X202.71Y-120.22
X202.71Y-190.033
X202.71Y-190.033
X202.71Y-190.033
X202.71Y-190.033
X204.556Y-118.997
X204.594Y-51.459
X204.594Y-191.085
X205.174Y-50.939
X205.174Y-190.565
X205.276Y-119.577
X205.724Y-50.389
X205.724Y-190.015
X205.876Y-120.197
X206.364Y-49.849
X206.364Y-189.475
X206.546Y-120.767
X210.876Y-32.041
X210.876Y-171.668
X211.527Y-31.183
X211.527Y-170.81
X212.178Y-30.326
X212.178Y-169.952
X212.691Y-92.313
X212.929Y-78.313
X212.929Y-217.94
X213.691Y-92.313
X213.929Y-78.313
X213.929Y-217.94
X214.691Y-92.313
X214.929Y-78.313
X214.929Y-217.94
X215.691Y-92.313
X215.929Y-78.313
X215.929Y-217.94
X216.691Y-92.313
X216.929Y-78.313
X216.929Y-217.94
X217.691Y-92.313
X217.929Y-78.313
X217.929Y-217.94
X218.691Y-92.313
X218.929Y-78.313
X218.929Y-217.94
X219.691Y-92.313
X219.929Y-78.313
X219.929Y-217.94
X220.691Y-92.313
X220.929Y-78.313
X220.929Y-217.94
X221.691Y-92.313
X221.929Y-78.313
X221.929Y-217.94
X222.442Y-140.301
X223.093Y-139.443
X223.745Y-138.585
X228.074Y-49.859
X228.074Y-189.485
X228.256Y-120.777
X228.744Y-50.429
X228.744Y-190.055
X228.896Y-120.237
X229.344Y-51.049
X229.344Y-190.675
X229.446Y-119.687
X230.026Y-119.167
X230.064Y-51.629
X230.064Y-191.255
X234.754Y-50.399
X234.754Y-190.025
X235.866Y-120.227
X236.411Y-83.313
X236.411Y-84.313
X236.411Y-85.313
X236.411Y-86.313
X236.411Y-87.313
X236.411Y-153.126
X236.411Y-154.126
X236.411Y-155.126
X236.411Y-156.126
X236.411Y-157.126
X239.911Y-23.0
X239.911Y-217.44
X240.911Y-23.0
X240.911Y-217.44
X241.911Y-23.0
X241.911Y-217.44
X242.911Y-23.0
X242.911Y-217.44
X243.911Y-23.0
X243.911Y-217.44
T0
M30
