G04 #@! TF.GenerationSoftware,KiCad,Pcbnew,6.0.5-a6ca702e91~116~ubuntu20.04.1*
G04 #@! TF.CreationDate,2022-10-27T20:54:25+02:00*
G04 #@! TF.ProjectId,panel,70616e65-6c2e-46b6-9963-61645f706362,rev?*
G04 #@! TF.SameCoordinates,Original*
G04 #@! TF.FileFunction,Paste,Top*
G04 #@! TF.FilePolarity,Positive*
%FSLAX46Y46*%
G04 Gerber Fmt 4.6, Leading zero omitted, Abs format (unit mm)*
G04 Created by KiCad (PCBNEW 6.0.5-a6ca702e91~116~ubuntu20.04.1) date 2022-10-27 20:54:25*
%MOMM*%
%LPD*%
G01*
G04 APERTURE LIST*
G04 Aperture macros list*
%AMRoundRect*
0 Rectangle with rounded corners*
0 $1 Rounding radius*
0 $2 $3 $4 $5 $6 $7 $8 $9 X,Y pos of 4 corners*
0 Add a 4 corners polygon primitive as box body*
4,1,4,$2,$3,$4,$5,$6,$7,$8,$9,$2,$3,0*
0 Add four circle primitives for the rounded corners*
1,1,$1+$1,$2,$3*
1,1,$1+$1,$4,$5*
1,1,$1+$1,$6,$7*
1,1,$1+$1,$8,$9*
0 Add four rect primitives between the rounded corners*
20,1,$1+$1,$2,$3,$4,$5,0*
20,1,$1+$1,$4,$5,$6,$7,0*
20,1,$1+$1,$6,$7,$8,$9,0*
20,1,$1+$1,$8,$9,$2,$3,0*%
G04 Aperture macros list end*
%ADD10RoundRect,0.200000X-0.200000X-0.275000X0.200000X-0.275000X0.200000X0.275000X-0.200000X0.275000X0*%
%ADD11RoundRect,0.243750X0.243750X0.456250X-0.243750X0.456250X-0.243750X-0.456250X0.243750X-0.456250X0*%
%ADD12RoundRect,0.137500X-0.662500X-0.137500X0.662500X-0.137500X0.662500X0.137500X-0.662500X0.137500X0*%
%ADD13RoundRect,0.243750X-0.243750X-0.456250X0.243750X-0.456250X0.243750X0.456250X-0.243750X0.456250X0*%
%ADD14RoundRect,0.137500X0.662500X0.137500X-0.662500X0.137500X-0.662500X-0.137500X0.662500X-0.137500X0*%
%ADD15RoundRect,0.250000X0.850000X-0.375000X0.850000X0.375000X-0.850000X0.375000X-0.850000X-0.375000X0*%
%ADD16RoundRect,0.250000X0.475000X-0.250000X0.475000X0.250000X-0.475000X0.250000X-0.475000X-0.250000X0*%
%ADD17RoundRect,0.200000X0.200000X0.275000X-0.200000X0.275000X-0.200000X-0.275000X0.200000X-0.275000X0*%
%ADD18R,1.900000X1.300000*%
%ADD19RoundRect,0.150000X-0.587500X-0.150000X0.587500X-0.150000X0.587500X0.150000X-0.587500X0.150000X0*%
%ADD20RoundRect,0.250000X-0.475000X0.250000X-0.475000X-0.250000X0.475000X-0.250000X0.475000X0.250000X0*%
%ADD21RoundRect,0.150000X0.587500X0.150000X-0.587500X0.150000X-0.587500X-0.150000X0.587500X-0.150000X0*%
%ADD22RoundRect,0.150000X-0.150000X0.587500X-0.150000X-0.587500X0.150000X-0.587500X0.150000X0.587500X0*%
%ADD23RoundRect,0.250000X-0.375000X-0.850000X0.375000X-0.850000X0.375000X0.850000X-0.375000X0.850000X0*%
%ADD24RoundRect,0.200000X0.275000X-0.200000X0.275000X0.200000X-0.275000X0.200000X-0.275000X-0.200000X0*%
%ADD25R,1.500000X0.900000*%
%ADD26RoundRect,0.200000X-0.275000X0.200000X-0.275000X-0.200000X0.275000X-0.200000X0.275000X0.200000X0*%
%ADD27RoundRect,0.250000X-0.850000X0.375000X-0.850000X-0.375000X0.850000X-0.375000X0.850000X0.375000X0*%
%ADD28RoundRect,0.250000X0.375000X0.850000X-0.375000X0.850000X-0.375000X-0.850000X0.375000X-0.850000X0*%
%ADD29RoundRect,0.150000X0.150000X-0.587500X0.150000X0.587500X-0.150000X0.587500X-0.150000X-0.587500X0*%
G04 APERTURE END LIST*
D10*
X152276200Y-204695400D03*
X153926200Y-204695400D03*
D11*
X228741400Y-118057400D03*
X226866400Y-118057400D03*
D12*
X97948000Y-195900400D03*
X97948000Y-197170400D03*
X97948000Y-198440400D03*
X97948000Y-199710400D03*
X97948000Y-200980400D03*
X97948000Y-202250400D03*
X97948000Y-203520400D03*
X97948000Y-204790400D03*
X103248000Y-204790400D03*
X103248000Y-203520400D03*
X103248000Y-202250400D03*
X103248000Y-200980400D03*
X103248000Y-199710400D03*
X103248000Y-198440400D03*
X103248000Y-197170400D03*
X103248000Y-195900400D03*
D13*
X212066900Y-173445400D03*
X213941900Y-173445400D03*
D14*
X103060000Y-114352400D03*
X103060000Y-113082400D03*
X103060000Y-111812400D03*
X103060000Y-110542400D03*
X103060000Y-109272400D03*
X103060000Y-108002400D03*
X103060000Y-106732400D03*
X103060000Y-105462400D03*
X97760000Y-105462400D03*
X97760000Y-106732400D03*
X97760000Y-108002400D03*
X97760000Y-109272400D03*
X97760000Y-110542400D03*
X97760000Y-111812400D03*
X97760000Y-113082400D03*
X97760000Y-114352400D03*
D13*
X124386600Y-206620600D03*
X126261600Y-206620600D03*
D15*
X157351200Y-178445400D03*
X157351200Y-176295400D03*
D13*
X176664800Y-187870600D03*
X178539800Y-187870600D03*
D16*
X41956800Y-101207400D03*
X41956800Y-99307400D03*
D17*
X224154400Y-54569000D03*
X222504400Y-54569000D03*
D10*
X93873000Y-204695400D03*
X95523000Y-204695400D03*
D18*
X37480800Y-190306400D03*
X46580800Y-190306400D03*
X46580800Y-185806400D03*
X37480800Y-185806400D03*
D19*
X126574100Y-56744200D03*
X126574100Y-58644200D03*
X128449100Y-57694200D03*
D11*
X116310000Y-101807400D03*
X114435000Y-101807400D03*
D17*
X107135000Y-105557400D03*
X105485000Y-105557400D03*
D20*
X39094800Y-74169000D03*
X39094800Y-76069000D03*
D17*
X165538200Y-108557400D03*
X163888200Y-108557400D03*
D11*
X56544800Y-60069000D03*
X54669800Y-60069000D03*
X222504400Y-210056400D03*
X220629400Y-210056400D03*
D17*
X224154400Y-201195400D03*
X222504400Y-201195400D03*
D11*
X174851200Y-208445400D03*
X172976200Y-208445400D03*
X114948000Y-199695400D03*
X113073000Y-199695400D03*
X116448000Y-208445400D03*
X114573000Y-208445400D03*
D13*
X26294800Y-68819000D03*
X28169800Y-68819000D03*
D21*
X186990300Y-113882200D03*
X186990300Y-111982200D03*
X185115300Y-112932200D03*
D11*
X164226200Y-173445400D03*
X162351200Y-173445400D03*
D20*
X100648000Y-209045400D03*
X100648000Y-210945400D03*
D11*
X225254400Y-42819000D03*
X223379400Y-42819000D03*
X58044800Y-68819000D03*
X56169800Y-68819000D03*
D10*
X35394800Y-199945400D03*
X37044800Y-199945400D03*
D11*
X145511600Y-31994200D03*
X143636600Y-31994200D03*
D13*
X153663700Y-173445400D03*
X155538700Y-173445400D03*
D21*
X162038700Y-183695400D03*
X162038700Y-181795400D03*
X160163700Y-182745400D03*
D20*
X97498000Y-74169000D03*
X97498000Y-76069000D03*
D11*
X204052800Y-138632200D03*
X202177800Y-138632200D03*
D10*
X122861600Y-40994200D03*
X124511600Y-40994200D03*
D22*
X166663200Y-115619900D03*
X164763200Y-115619900D03*
X165713200Y-117494900D03*
D15*
X157351200Y-38819000D03*
X157351200Y-36669000D03*
D14*
X132261600Y-44539200D03*
X132261600Y-43269200D03*
X132261600Y-41999200D03*
X132261600Y-40729200D03*
X132261600Y-39459200D03*
X132261600Y-38189200D03*
X132261600Y-36919200D03*
X132261600Y-35649200D03*
X126961600Y-35649200D03*
X126961600Y-36919200D03*
X126961600Y-38189200D03*
X126961600Y-39459200D03*
X126961600Y-40729200D03*
X126961600Y-41999200D03*
X126961600Y-43269200D03*
X126961600Y-44539200D03*
D13*
X92573000Y-182445400D03*
X94448000Y-182445400D03*
D23*
X216429400Y-33819000D03*
X218579400Y-33819000D03*
D17*
X165538200Y-105557400D03*
X163888200Y-105557400D03*
D11*
X56544800Y-199695400D03*
X54669800Y-199695400D03*
X87108400Y-171620600D03*
X85233400Y-171620600D03*
D13*
X113899600Y-138632200D03*
X115774600Y-138632200D03*
D10*
X64458400Y-44494200D03*
X66108400Y-44494200D03*
D11*
X47419800Y-33819000D03*
X45544800Y-33819000D03*
D19*
X155775700Y-126557400D03*
X155775700Y-128457400D03*
X157650700Y-127507400D03*
D17*
X48944800Y-201195400D03*
X47294800Y-201195400D03*
D13*
X172164800Y-31994200D03*
X174039800Y-31994200D03*
D10*
X210679400Y-204695400D03*
X212329400Y-204695400D03*
D24*
X106310000Y-113707400D03*
X106310000Y-112057400D03*
D20*
X42244800Y-69419000D03*
X42244800Y-71319000D03*
D25*
X160513200Y-139357400D03*
X160513200Y-140757400D03*
X157413200Y-139357400D03*
X157413200Y-140757400D03*
D10*
X181264800Y-184120600D03*
X182914800Y-184120600D03*
D17*
X107348000Y-195945400D03*
X105698000Y-195945400D03*
D10*
X93873000Y-65069000D03*
X95523000Y-65069000D03*
D11*
X53531800Y-118057400D03*
X51656800Y-118057400D03*
D17*
X78146400Y-126132200D03*
X76496400Y-126132200D03*
D10*
X152276200Y-65069000D03*
X153926200Y-65069000D03*
D17*
X194814800Y-180120600D03*
X193164800Y-180120600D03*
D13*
X205879400Y-192195400D03*
X207754400Y-192195400D03*
D18*
X46580800Y-50680000D03*
X37480800Y-50680000D03*
X37480800Y-46180000D03*
X46580800Y-46180000D03*
D13*
X147476200Y-52569000D03*
X149351200Y-52569000D03*
X59871400Y-122382200D03*
X61746400Y-122382200D03*
D11*
X76621400Y-103632200D03*
X74746400Y-103632200D03*
X199539800Y-187870600D03*
X197664800Y-187870600D03*
X166838200Y-127807400D03*
X164963200Y-127807400D03*
D13*
X86010500Y-199695400D03*
X87885500Y-199695400D03*
D10*
X35256800Y-114307400D03*
X36906800Y-114307400D03*
D13*
X27607300Y-199695400D03*
X29482300Y-199695400D03*
X63358400Y-197620600D03*
X65233400Y-197620600D03*
D20*
X188252800Y-139232200D03*
X188252800Y-141132200D03*
D26*
X123899600Y-126732200D03*
X123899600Y-128382200D03*
D25*
X69696400Y-101082200D03*
X69696400Y-99682200D03*
X72796400Y-101082200D03*
X72796400Y-99682200D03*
D13*
X115261600Y-40744200D03*
X117136600Y-40744200D03*
D12*
X214754400Y-195900400D03*
X214754400Y-197170400D03*
X214754400Y-198440400D03*
X214754400Y-199710400D03*
X214754400Y-200980400D03*
X214754400Y-202250400D03*
X214754400Y-203520400D03*
X214754400Y-204790400D03*
X220054400Y-204790400D03*
X220054400Y-203520400D03*
X220054400Y-202250400D03*
X220054400Y-200980400D03*
X220054400Y-199710400D03*
X220054400Y-198440400D03*
X220054400Y-197170400D03*
X220054400Y-195900400D03*
D11*
X87246400Y-138632200D03*
X85371400Y-138632200D03*
D13*
X36794800Y-70430000D03*
X38669800Y-70430000D03*
X95198000Y-70430000D03*
X97073000Y-70430000D03*
D11*
X87108400Y-31994200D03*
X85233400Y-31994200D03*
D13*
X27607300Y-60069000D03*
X29482300Y-60069000D03*
D17*
X107348000Y-54569000D03*
X105698000Y-54569000D03*
D11*
X196039800Y-57994200D03*
X194164800Y-57994200D03*
D27*
X215616400Y-131807400D03*
X215616400Y-133957400D03*
D11*
X173351200Y-60069000D03*
X171476200Y-60069000D03*
D18*
X66822400Y-50133200D03*
X75922400Y-50133200D03*
X75922400Y-54633200D03*
X66822400Y-54633200D03*
D20*
X220554400Y-74169000D03*
X220554400Y-76069000D03*
D17*
X194952800Y-131382200D03*
X193302800Y-131382200D03*
D25*
X215704400Y-31269000D03*
X215704400Y-29869000D03*
X218804400Y-31269000D03*
X218804400Y-29869000D03*
D17*
X48944800Y-61569000D03*
X47294800Y-61569000D03*
X194739800Y-35744200D03*
X193089800Y-35744200D03*
D21*
X162038700Y-44069000D03*
X162038700Y-42169000D03*
X160163700Y-43119000D03*
D17*
X48944800Y-199445400D03*
X47294800Y-199445400D03*
D13*
X95260500Y-33819000D03*
X97135500Y-33819000D03*
D16*
X74308400Y-26644200D03*
X74308400Y-24744200D03*
D20*
X185102800Y-143982200D03*
X185102800Y-145882200D03*
D27*
X98810000Y-131807400D03*
X98810000Y-133957400D03*
D10*
X93660000Y-109057400D03*
X95310000Y-109057400D03*
X35256800Y-112557400D03*
X36906800Y-112557400D03*
D17*
X48944800Y-195945400D03*
X47294800Y-195945400D03*
D11*
X173351200Y-199695400D03*
X171476200Y-199695400D03*
D17*
X77933400Y-38744200D03*
X76283400Y-38744200D03*
D18*
X212690400Y-190306400D03*
X221790400Y-190306400D03*
X221790400Y-185806400D03*
X212690400Y-185806400D03*
D24*
X77108400Y-183520600D03*
X77108400Y-181870600D03*
D18*
X221930400Y-119946400D03*
X212830400Y-119946400D03*
X221930400Y-124446400D03*
X212830400Y-124446400D03*
D19*
X130824100Y-56744200D03*
X130824100Y-58644200D03*
X132699100Y-57694200D03*
D10*
X210679400Y-65069000D03*
X212329400Y-65069000D03*
D27*
X69608400Y-201620600D03*
X69608400Y-203770600D03*
D18*
X212690400Y-50680000D03*
X221790400Y-50680000D03*
X212690400Y-46180000D03*
X221790400Y-46180000D03*
D10*
X152063200Y-114307400D03*
X153713200Y-114307400D03*
D13*
X143101200Y-208445400D03*
X144976200Y-208445400D03*
D22*
X79058400Y-45806700D03*
X77158400Y-45806700D03*
X78108400Y-47681700D03*
D20*
X217454400Y-209045400D03*
X217454400Y-210945400D03*
D21*
X128587100Y-113882200D03*
X128587100Y-111982200D03*
X126712100Y-112932200D03*
D11*
X108435000Y-127807400D03*
X106560000Y-127807400D03*
D17*
X136411600Y-40494200D03*
X134761600Y-40494200D03*
D28*
X130586600Y-66994200D03*
X128436600Y-66994200D03*
D11*
X196052800Y-112632200D03*
X194177800Y-112632200D03*
D21*
X40982300Y-183695400D03*
X40982300Y-181795400D03*
X39107300Y-182745400D03*
D13*
X211991400Y-136807400D03*
X213866400Y-136807400D03*
D10*
X64671400Y-134882200D03*
X66321400Y-134882200D03*
D13*
X142963200Y-101807400D03*
X144838200Y-101807400D03*
D17*
X224154400Y-59819000D03*
X222504400Y-59819000D03*
D16*
X132711600Y-26644200D03*
X132711600Y-24744200D03*
D11*
X85795900Y-180370600D03*
X83920900Y-180370600D03*
D17*
X224016400Y-110307400D03*
X222366400Y-110307400D03*
X48806800Y-110307400D03*
X47156800Y-110307400D03*
D20*
X132949600Y-143982200D03*
X132949600Y-145882200D03*
D13*
X26294800Y-208445400D03*
X28169800Y-208445400D03*
D10*
X210466400Y-112557400D03*
X212116400Y-112557400D03*
D17*
X223941400Y-108557400D03*
X222291400Y-108557400D03*
D13*
X212066900Y-33819000D03*
X213941900Y-33819000D03*
X113761600Y-171620600D03*
X115636600Y-171620600D03*
D11*
X193352300Y-66994200D03*
X191477300Y-66994200D03*
D23*
X216429400Y-173445400D03*
X218579400Y-173445400D03*
D16*
X71158400Y-31394200D03*
X71158400Y-29494200D03*
D25*
X43706800Y-139357400D03*
X43706800Y-140757400D03*
X40606800Y-139357400D03*
X40606800Y-140757400D03*
D13*
X172302800Y-138632200D03*
X174177800Y-138632200D03*
X65983400Y-66994200D03*
X67858400Y-66994200D03*
D29*
X121949600Y-124819700D03*
X123849600Y-124819700D03*
X122899600Y-122944700D03*
D16*
X38856800Y-96457400D03*
X38856800Y-94557400D03*
D11*
X76608400Y-170009600D03*
X74733400Y-170009600D03*
D20*
X126699600Y-143982200D03*
X126699600Y-145882200D03*
D10*
X35256800Y-116057400D03*
X36906800Y-116057400D03*
D17*
X165751200Y-61569000D03*
X164101200Y-61569000D03*
D10*
X210679400Y-201695400D03*
X212329400Y-201695400D03*
X181264800Y-178870600D03*
X182914800Y-178870600D03*
D13*
X26156800Y-101807400D03*
X28031800Y-101807400D03*
D17*
X48944800Y-54569000D03*
X47294800Y-54569000D03*
X194952800Y-124382200D03*
X193302800Y-124382200D03*
D28*
X188989800Y-206620600D03*
X186839800Y-206620600D03*
D17*
X78146400Y-124382200D03*
X76496400Y-124382200D03*
D15*
X69746400Y-108632200D03*
X69746400Y-106482200D03*
D19*
X189227300Y-196370600D03*
X189227300Y-198270600D03*
X191102300Y-197320600D03*
D11*
X111935000Y-118057400D03*
X110060000Y-118057400D03*
X50031800Y-127807400D03*
X48156800Y-127807400D03*
D17*
X223941400Y-105557400D03*
X222291400Y-105557400D03*
D12*
X39544800Y-56274000D03*
X39544800Y-57544000D03*
X39544800Y-58814000D03*
X39544800Y-60084000D03*
X39544800Y-61354000D03*
X39544800Y-62624000D03*
X39544800Y-63894000D03*
X39544800Y-65164000D03*
X44844800Y-65164000D03*
X44844800Y-63894000D03*
X44844800Y-62624000D03*
X44844800Y-61354000D03*
X44844800Y-60084000D03*
X44844800Y-58814000D03*
X44844800Y-57544000D03*
X44844800Y-56274000D03*
D25*
X157301200Y-170895400D03*
X157301200Y-169495400D03*
X160401200Y-170895400D03*
X160401200Y-169495400D03*
D13*
X59858400Y-187870600D03*
X61733400Y-187870600D03*
D11*
X174851200Y-68819000D03*
X172976200Y-68819000D03*
X114948000Y-60069000D03*
X113073000Y-60069000D03*
D12*
X68746400Y-126087200D03*
X68746400Y-127357200D03*
X68746400Y-128627200D03*
X68746400Y-129897200D03*
X68746400Y-131167200D03*
X68746400Y-132437200D03*
X68746400Y-133707200D03*
X68746400Y-134977200D03*
X74046400Y-134977200D03*
X74046400Y-133707200D03*
X74046400Y-132437200D03*
X74046400Y-131167200D03*
X74046400Y-129897200D03*
X74046400Y-128627200D03*
X74046400Y-127357200D03*
X74046400Y-126087200D03*
D28*
X188989800Y-66994200D03*
X186839800Y-66994200D03*
D10*
X93798000Y-60319000D03*
X95448000Y-60319000D03*
D13*
X113761600Y-31994200D03*
X115636600Y-31994200D03*
D27*
X102060000Y-131807400D03*
X102060000Y-133957400D03*
D13*
X153601200Y-70430000D03*
X155476200Y-70430000D03*
D20*
X162151200Y-213795400D03*
X162151200Y-215695400D03*
D26*
X153101200Y-196545400D03*
X153101200Y-198195400D03*
D18*
X163387200Y-190306400D03*
X154287200Y-190306400D03*
X154287200Y-185806400D03*
X163387200Y-185806400D03*
D16*
X103510000Y-96457400D03*
X103510000Y-94557400D03*
D24*
X77108400Y-43894200D03*
X77108400Y-42244200D03*
D10*
X210466400Y-110807400D03*
X212116400Y-110807400D03*
D13*
X56858400Y-180370600D03*
X58733400Y-180370600D03*
D11*
X170351200Y-192195400D03*
X168476200Y-192195400D03*
D15*
X102198000Y-178445400D03*
X102198000Y-176295400D03*
D13*
X182789800Y-66994200D03*
X184664800Y-66994200D03*
D11*
X105810000Y-100196400D03*
X103935000Y-100196400D03*
D10*
X181264800Y-46244200D03*
X182914800Y-46244200D03*
X152063200Y-112557400D03*
X153713200Y-112557400D03*
D11*
X82733400Y-48244200D03*
X80858400Y-48244200D03*
D13*
X180164800Y-197620600D03*
X182039800Y-197620600D03*
X212116400Y-100196400D03*
X213991400Y-100196400D03*
X118274600Y-122382200D03*
X120149600Y-122382200D03*
D10*
X122861600Y-184120600D03*
X124511600Y-184120600D03*
D13*
X27656800Y-110557400D03*
X29531800Y-110557400D03*
D11*
X193414800Y-30383200D03*
X191539800Y-30383200D03*
D13*
X55358400Y-31994200D03*
X57233400Y-31994200D03*
D11*
X222629400Y-33819000D03*
X220754400Y-33819000D03*
D13*
X86060000Y-110557400D03*
X87935000Y-110557400D03*
D17*
X194814800Y-40494200D03*
X193164800Y-40494200D03*
D13*
X124511600Y-30383200D03*
X126386600Y-30383200D03*
D17*
X165751200Y-199445400D03*
X164101200Y-199445400D03*
D19*
X184977300Y-196370600D03*
X184977300Y-198270600D03*
X186852300Y-197320600D03*
D15*
X98948000Y-38819000D03*
X98948000Y-36669000D03*
D10*
X152063200Y-110807400D03*
X153713200Y-110807400D03*
D13*
X209379400Y-42819000D03*
X211254400Y-42819000D03*
D11*
X193427800Y-103632200D03*
X191552800Y-103632200D03*
D10*
X93660000Y-114307400D03*
X95310000Y-114307400D03*
D20*
X214304400Y-74169000D03*
X214304400Y-76069000D03*
D18*
X163527200Y-119946400D03*
X154427200Y-119946400D03*
X154427200Y-124446400D03*
X163527200Y-124446400D03*
D23*
X41219800Y-173445400D03*
X43369800Y-173445400D03*
D11*
X145511600Y-171620600D03*
X143636600Y-171620600D03*
X222616400Y-100196400D03*
X220741400Y-100196400D03*
D17*
X78146400Y-129632200D03*
X76496400Y-129632200D03*
D13*
X63358400Y-57994200D03*
X65233400Y-57994200D03*
D10*
X93798000Y-199945400D03*
X95448000Y-199945400D03*
D23*
X128824600Y-103632200D03*
X130974600Y-103632200D03*
D13*
X147463200Y-118057400D03*
X149338200Y-118057400D03*
D17*
X224154400Y-195945400D03*
X222504400Y-195945400D03*
D13*
X66108400Y-30383200D03*
X67983400Y-30383200D03*
D21*
X220441900Y-183695400D03*
X220441900Y-181795400D03*
X218566900Y-182745400D03*
D22*
X79058400Y-185433100D03*
X77158400Y-185433100D03*
X78108400Y-187308100D03*
D11*
X225241400Y-127807400D03*
X223366400Y-127807400D03*
D16*
X68058400Y-26644200D03*
X68058400Y-24744200D03*
D19*
X68170900Y-196370600D03*
X68170900Y-198270600D03*
X70045900Y-197320600D03*
D20*
X45344800Y-213795400D03*
X45344800Y-215695400D03*
D18*
X125225600Y-189759600D03*
X134325600Y-189759600D03*
X125225600Y-194259600D03*
X134325600Y-194259600D03*
D13*
X173664800Y-40744200D03*
X175539800Y-40744200D03*
D23*
X99623000Y-33819000D03*
X101773000Y-33819000D03*
D11*
X137636600Y-197620600D03*
X135761600Y-197620600D03*
D22*
X195864800Y-45806700D03*
X193964800Y-45806700D03*
X194914800Y-47681700D03*
D27*
X189664800Y-201620600D03*
X189664800Y-203770600D03*
D20*
X42244800Y-209045400D03*
X42244800Y-210945400D03*
D11*
X82746400Y-122382200D03*
X80871400Y-122382200D03*
D12*
X214754400Y-56274000D03*
X214754400Y-57544000D03*
X214754400Y-58814000D03*
X214754400Y-60084000D03*
X214754400Y-61354000D03*
X214754400Y-62624000D03*
X214754400Y-63894000D03*
X214754400Y-65164000D03*
X220054400Y-65164000D03*
X220054400Y-63894000D03*
X220054400Y-62624000D03*
X220054400Y-61354000D03*
X220054400Y-60084000D03*
X220054400Y-58814000D03*
X220054400Y-57544000D03*
X220054400Y-56274000D03*
D21*
X216191900Y-183695400D03*
X216191900Y-181795400D03*
X214316900Y-182745400D03*
D17*
X78008400Y-40494200D03*
X76358400Y-40494200D03*
D13*
X180164800Y-57994200D03*
X182039800Y-57994200D03*
D15*
X72996400Y-108632200D03*
X72996400Y-106482200D03*
D10*
X181264800Y-42744200D03*
X182914800Y-42744200D03*
D27*
X186414800Y-61994200D03*
X186414800Y-64144200D03*
D25*
X40494800Y-31269000D03*
X40494800Y-29869000D03*
X43594800Y-31269000D03*
X43594800Y-29869000D03*
D17*
X136336600Y-175370600D03*
X134686600Y-175370600D03*
D13*
X153713200Y-100196400D03*
X155588200Y-100196400D03*
D21*
X220441900Y-44069000D03*
X220441900Y-42169000D03*
X218566900Y-43119000D03*
D11*
X76496400Y-140243200D03*
X74621400Y-140243200D03*
D15*
X219004400Y-178445400D03*
X219004400Y-176295400D03*
D13*
X92560000Y-127807400D03*
X94435000Y-127807400D03*
D15*
X43794800Y-178445400D03*
X43794800Y-176295400D03*
D11*
X47344300Y-136807400D03*
X45469300Y-136807400D03*
D13*
X59858400Y-48244200D03*
X61733400Y-48244200D03*
D11*
X225254400Y-182445400D03*
X223379400Y-182445400D03*
X141136600Y-48244200D03*
X139261600Y-48244200D03*
D13*
X153588200Y-136807400D03*
X155463200Y-136807400D03*
D14*
X44656800Y-114352400D03*
X44656800Y-113082400D03*
X44656800Y-111812400D03*
X44656800Y-110542400D03*
X44656800Y-109272400D03*
X44656800Y-108002400D03*
X44656800Y-106732400D03*
X44656800Y-105462400D03*
X39356800Y-105462400D03*
X39356800Y-106732400D03*
X39356800Y-108002400D03*
X39356800Y-109272400D03*
X39356800Y-110542400D03*
X39356800Y-111812400D03*
X39356800Y-113082400D03*
X39356800Y-114352400D03*
D18*
X134185600Y-120493200D03*
X125085600Y-120493200D03*
X134185600Y-115993200D03*
X125085600Y-115993200D03*
D11*
X116448000Y-68819000D03*
X114573000Y-68819000D03*
D17*
X224154400Y-199445400D03*
X222504400Y-199445400D03*
X165751200Y-195945400D03*
X164101200Y-195945400D03*
D19*
X130824100Y-196370600D03*
X130824100Y-198270600D03*
X132699100Y-197320600D03*
D11*
X164101200Y-70430000D03*
X162226200Y-70430000D03*
D20*
X162151200Y-74169000D03*
X162151200Y-76069000D03*
D17*
X224154400Y-58069000D03*
X222504400Y-58069000D03*
D21*
X191240300Y-113882200D03*
X191240300Y-111982200D03*
X189365300Y-112932200D03*
D11*
X79233400Y-197620600D03*
X77358400Y-197620600D03*
X50044800Y-182445400D03*
X48169800Y-182445400D03*
D12*
X39544800Y-195900400D03*
X39544800Y-197170400D03*
X39544800Y-198440400D03*
X39544800Y-199710400D03*
X39544800Y-200980400D03*
X39544800Y-202250400D03*
X39544800Y-203520400D03*
X39544800Y-204790400D03*
X44844800Y-204790400D03*
X44844800Y-203520400D03*
X44844800Y-202250400D03*
X44844800Y-200980400D03*
X44844800Y-199710400D03*
X44844800Y-198440400D03*
X44844800Y-197170400D03*
X44844800Y-195900400D03*
D10*
X35394800Y-60319000D03*
X37044800Y-60319000D03*
D11*
X134949100Y-66994200D03*
X133074100Y-66994200D03*
D25*
X98898000Y-31269000D03*
X98898000Y-29869000D03*
X101998000Y-31269000D03*
X101998000Y-29869000D03*
D10*
X122861600Y-39244200D03*
X124511600Y-39244200D03*
D13*
X150976200Y-182445400D03*
X152851200Y-182445400D03*
D11*
X141149600Y-122382200D03*
X139274600Y-122382200D03*
D17*
X224154400Y-61569000D03*
X222504400Y-61569000D03*
D21*
X45232300Y-183695400D03*
X45232300Y-181795400D03*
X43357300Y-182745400D03*
D27*
X43656800Y-131807400D03*
X43656800Y-133957400D03*
X189664800Y-61994200D03*
X189664800Y-64144200D03*
D11*
X47406800Y-100196400D03*
X45531800Y-100196400D03*
D18*
X66822400Y-189759600D03*
X75922400Y-189759600D03*
X66822400Y-194259600D03*
X75922400Y-194259600D03*
D11*
X145649600Y-138632200D03*
X143774600Y-138632200D03*
D25*
X218916400Y-139357400D03*
X218916400Y-140757400D03*
X215816400Y-139357400D03*
X215816400Y-140757400D03*
D15*
X215754400Y-38819000D03*
X215754400Y-36669000D03*
D19*
X160025700Y-126557400D03*
X160025700Y-128457400D03*
X161900700Y-127507400D03*
D11*
X53544800Y-192195400D03*
X51669800Y-192195400D03*
X135011600Y-30383200D03*
X133136600Y-30383200D03*
D10*
X122861600Y-180620600D03*
X124511600Y-180620600D03*
D29*
X209554400Y-194632900D03*
X211454400Y-194632900D03*
X210504400Y-192757900D03*
D10*
X64458400Y-42744200D03*
X66108400Y-42744200D03*
D17*
X107348000Y-199445400D03*
X105698000Y-199445400D03*
D10*
X210604400Y-60319000D03*
X212254400Y-60319000D03*
D15*
X186552800Y-108632200D03*
X186552800Y-106482200D03*
D10*
X152276200Y-201695400D03*
X153926200Y-201695400D03*
D11*
X105823000Y-33819000D03*
X103948000Y-33819000D03*
D17*
X48944800Y-59819000D03*
X47294800Y-59819000D03*
D11*
X233254400Y-68819000D03*
X231379400Y-68819000D03*
D19*
X97372500Y-126557400D03*
X97372500Y-128457400D03*
X99247500Y-127507400D03*
D13*
X63371400Y-112632200D03*
X65246400Y-112632200D03*
D27*
X40406800Y-131807400D03*
X40406800Y-133957400D03*
D11*
X137636600Y-57994200D03*
X135761600Y-57994200D03*
D22*
X137461600Y-185433100D03*
X135561600Y-185433100D03*
X136511600Y-187308100D03*
D11*
X58044800Y-208445400D03*
X56169800Y-208445400D03*
D27*
X218866400Y-131807400D03*
X218866400Y-133957400D03*
D24*
X193914800Y-43894200D03*
X193914800Y-42244200D03*
D21*
X157788700Y-183695400D03*
X157788700Y-181795400D03*
X155913700Y-182745400D03*
D15*
X160601200Y-178445400D03*
X160601200Y-176295400D03*
D20*
X159051200Y-209045400D03*
X159051200Y-210945400D03*
D15*
X40544800Y-38819000D03*
X40544800Y-36669000D03*
D25*
X189714800Y-69544200D03*
X189714800Y-70944200D03*
X186614800Y-69544200D03*
X186614800Y-70944200D03*
D13*
X56858400Y-40744200D03*
X58733400Y-40744200D03*
D17*
X48944800Y-58069000D03*
X47294800Y-58069000D03*
D21*
X132837100Y-113882200D03*
X132837100Y-111982200D03*
X130962100Y-112932200D03*
D10*
X181264800Y-39244200D03*
X182914800Y-39244200D03*
D16*
X68058400Y-166270600D03*
X68058400Y-164370600D03*
D27*
X72858400Y-61994200D03*
X72858400Y-64144200D03*
D13*
X153601200Y-210056400D03*
X155476200Y-210056400D03*
D16*
X126461600Y-166270600D03*
X126461600Y-164370600D03*
D10*
X210466400Y-114307400D03*
X212116400Y-114307400D03*
D15*
X128149600Y-108632200D03*
X128149600Y-106482200D03*
D17*
X48944800Y-197695400D03*
X47294800Y-197695400D03*
X107348000Y-201195400D03*
X105698000Y-201195400D03*
X165751200Y-197695400D03*
X164101200Y-197695400D03*
X165751200Y-59819000D03*
X164101200Y-59819000D03*
X136336600Y-35744200D03*
X134686600Y-35744200D03*
D13*
X86010500Y-60069000D03*
X87885500Y-60069000D03*
D10*
X122861600Y-185870600D03*
X124511600Y-185870600D03*
D24*
X135511600Y-183520600D03*
X135511600Y-181870600D03*
D27*
X186414800Y-201620600D03*
X186414800Y-203770600D03*
D11*
X166851200Y-42819000D03*
X164976200Y-42819000D03*
D13*
X182914800Y-30383200D03*
X184789800Y-30383200D03*
D16*
X191114800Y-166270600D03*
X191114800Y-164370600D03*
D20*
X214304400Y-213795400D03*
X214304400Y-215695400D03*
D11*
X79246400Y-112632200D03*
X77371400Y-112632200D03*
D16*
X129561600Y-171020600D03*
X129561600Y-169120600D03*
D22*
X108260000Y-115619900D03*
X106360000Y-115619900D03*
X107310000Y-117494900D03*
D16*
X214066400Y-96457400D03*
X214066400Y-94557400D03*
D21*
X216191900Y-44069000D03*
X216191900Y-42169000D03*
X214316900Y-43119000D03*
D19*
X38969300Y-126557400D03*
X38969300Y-128457400D03*
X40844300Y-127507400D03*
D20*
X68296400Y-143982200D03*
X68296400Y-145882200D03*
D16*
X158763200Y-101207400D03*
X158763200Y-99307400D03*
D25*
X131311600Y-69544200D03*
X131311600Y-70944200D03*
X128211600Y-69544200D03*
X128211600Y-70944200D03*
D13*
X30669800Y-192195400D03*
X32544800Y-192195400D03*
D10*
X35469800Y-201695400D03*
X37119800Y-201695400D03*
D13*
X89073000Y-52569000D03*
X90948000Y-52569000D03*
D25*
X131311600Y-209170600D03*
X131311600Y-210570600D03*
X128211600Y-209170600D03*
X128211600Y-210570600D03*
D19*
X218428900Y-126557400D03*
X218428900Y-128457400D03*
X220303900Y-127507400D03*
D11*
X174713200Y-101807400D03*
X172838200Y-101807400D03*
X76545900Y-206620600D03*
X74670900Y-206620600D03*
D13*
X65996400Y-140243200D03*
X67871400Y-140243200D03*
D11*
X228754400Y-192195400D03*
X226879400Y-192195400D03*
D24*
X164713200Y-113707400D03*
X164713200Y-112057400D03*
D18*
X75782400Y-120493200D03*
X66682400Y-120493200D03*
X75782400Y-115993200D03*
X66682400Y-115993200D03*
D26*
X182302800Y-126732200D03*
X182302800Y-128382200D03*
D13*
X34156800Y-127807400D03*
X36031800Y-127807400D03*
D10*
X64458400Y-185870600D03*
X66108400Y-185870600D03*
D11*
X47294800Y-210056400D03*
X45419800Y-210056400D03*
D14*
X190664800Y-184165600D03*
X190664800Y-182895600D03*
X190664800Y-181625600D03*
X190664800Y-180355600D03*
X190664800Y-179085600D03*
X190664800Y-177815600D03*
X190664800Y-176545600D03*
X190664800Y-175275600D03*
X185364800Y-175275600D03*
X185364800Y-176545600D03*
X185364800Y-177815600D03*
X185364800Y-179085600D03*
X185364800Y-180355600D03*
X185364800Y-181625600D03*
X185364800Y-182895600D03*
X185364800Y-184165600D03*
D19*
X214178900Y-126557400D03*
X214178900Y-128457400D03*
X216053900Y-127507400D03*
D13*
X182802800Y-140243200D03*
X184677800Y-140243200D03*
D25*
X102110000Y-139357400D03*
X102110000Y-140757400D03*
X99010000Y-139357400D03*
X99010000Y-140757400D03*
D27*
X157213200Y-131807400D03*
X157213200Y-133957400D03*
D17*
X194739800Y-38744200D03*
X193089800Y-38744200D03*
D20*
X39094800Y-213795400D03*
X39094800Y-215695400D03*
D10*
X152201200Y-199945400D03*
X153851200Y-199945400D03*
D24*
X193914800Y-183520600D03*
X193914800Y-181870600D03*
D11*
X203914800Y-171620600D03*
X202039800Y-171620600D03*
D12*
X185552800Y-126087200D03*
X185552800Y-127357200D03*
X185552800Y-128627200D03*
X185552800Y-129897200D03*
X185552800Y-131167200D03*
X185552800Y-132437200D03*
X185552800Y-133707200D03*
X185552800Y-134977200D03*
X190852800Y-134977200D03*
X190852800Y-133707200D03*
X190852800Y-132437200D03*
X190852800Y-131167200D03*
X190852800Y-129897200D03*
X190852800Y-128627200D03*
X190852800Y-127357200D03*
X190852800Y-126087200D03*
D14*
X73858400Y-184165600D03*
X73858400Y-182895600D03*
X73858400Y-181625600D03*
X73858400Y-180355600D03*
X73858400Y-179085600D03*
X73858400Y-177815600D03*
X73858400Y-176545600D03*
X73858400Y-175275600D03*
X68558400Y-175275600D03*
X68558400Y-176545600D03*
X68558400Y-177815600D03*
X68558400Y-179085600D03*
X68558400Y-180355600D03*
X68558400Y-181625600D03*
X68558400Y-182895600D03*
X68558400Y-184165600D03*
D17*
X165751200Y-56319000D03*
X164101200Y-56319000D03*
D10*
X181477800Y-134882200D03*
X183127800Y-134882200D03*
X181264800Y-182370600D03*
X182914800Y-182370600D03*
D15*
X189802800Y-108632200D03*
X189802800Y-106482200D03*
D10*
X93660000Y-116057400D03*
X95310000Y-116057400D03*
D11*
X164226200Y-33819000D03*
X162351200Y-33819000D03*
D10*
X35256800Y-110807400D03*
X36906800Y-110807400D03*
D21*
X157788700Y-44069000D03*
X157788700Y-42169000D03*
X155913700Y-43119000D03*
D13*
X34169800Y-42819000D03*
X36044800Y-42819000D03*
D11*
X202552800Y-129882200D03*
X200677800Y-129882200D03*
D10*
X122861600Y-182370600D03*
X124511600Y-182370600D03*
D11*
X199539800Y-48244200D03*
X197664800Y-48244200D03*
D10*
X152201200Y-60319000D03*
X153851200Y-60319000D03*
D29*
X34344800Y-194632900D03*
X36244800Y-194632900D03*
X35294800Y-192757900D03*
D11*
X196039800Y-197620600D03*
X194164800Y-197620600D03*
X134949100Y-206620600D03*
X133074100Y-206620600D03*
D28*
X42981800Y-136807400D03*
X40831800Y-136807400D03*
D19*
X189227300Y-56744200D03*
X189227300Y-58644200D03*
X191102300Y-57694200D03*
D28*
X159788200Y-136807400D03*
X157638200Y-136807400D03*
D11*
X233116400Y-101807400D03*
X231241400Y-101807400D03*
D13*
X118261600Y-48244200D03*
X120136600Y-48244200D03*
D29*
X151151200Y-55006500D03*
X153051200Y-55006500D03*
X152101200Y-53131500D03*
D13*
X55358400Y-171620600D03*
X57233400Y-171620600D03*
D29*
X92748000Y-55006500D03*
X94648000Y-55006500D03*
X93698000Y-53131500D03*
D13*
X201366400Y-101807400D03*
X203241400Y-101807400D03*
D19*
X72420900Y-56744200D03*
X72420900Y-58644200D03*
X74295900Y-57694200D03*
D13*
X180177800Y-112632200D03*
X182052800Y-112632200D03*
D11*
X111948000Y-192195400D03*
X110073000Y-192195400D03*
D25*
X215704400Y-170895400D03*
X215704400Y-169495400D03*
X218804400Y-170895400D03*
X218804400Y-169495400D03*
D17*
X136549600Y-126132200D03*
X134899600Y-126132200D03*
D16*
X97260000Y-96457400D03*
X97260000Y-94557400D03*
D10*
X64671400Y-131882200D03*
X66321400Y-131882200D03*
D11*
X170338200Y-118057400D03*
X168463200Y-118057400D03*
D13*
X34169800Y-182445400D03*
X36044800Y-182445400D03*
X205879400Y-52569000D03*
X207754400Y-52569000D03*
D27*
X128011600Y-61994200D03*
X128011600Y-64144200D03*
D11*
X82733400Y-187870600D03*
X80858400Y-187870600D03*
X57906800Y-101807400D03*
X56031800Y-101807400D03*
D17*
X194952800Y-127882200D03*
X193302800Y-127882200D03*
D26*
X211504400Y-56919000D03*
X211504400Y-58569000D03*
D11*
X202602300Y-40744200D03*
X200727300Y-40744200D03*
D17*
X136411600Y-180120600D03*
X134761600Y-180120600D03*
X107210000Y-110307400D03*
X105560000Y-110307400D03*
D21*
X99385500Y-44069000D03*
X99385500Y-42169000D03*
X97510500Y-43119000D03*
D10*
X35469800Y-204695400D03*
X37119800Y-204695400D03*
D11*
X199552800Y-122382200D03*
X197677800Y-122382200D03*
X170351200Y-52569000D03*
X168476200Y-52569000D03*
D13*
X36857300Y-173445400D03*
X38732300Y-173445400D03*
D17*
X78146400Y-127882200D03*
X76496400Y-127882200D03*
D19*
X43219300Y-126557400D03*
X43219300Y-128457400D03*
X45094300Y-127507400D03*
D11*
X135024600Y-103632200D03*
X133149600Y-103632200D03*
D18*
X95884000Y-190306400D03*
X104984000Y-190306400D03*
X104984000Y-185806400D03*
X95884000Y-185806400D03*
D13*
X182914800Y-170009600D03*
X184789800Y-170009600D03*
D10*
X210679400Y-62069000D03*
X212329400Y-62069000D03*
X93660000Y-112557400D03*
X95310000Y-112557400D03*
D21*
X99385500Y-183695400D03*
X99385500Y-181795400D03*
X97510500Y-182745400D03*
D13*
X30656800Y-118057400D03*
X32531800Y-118057400D03*
D16*
X126461600Y-26644200D03*
X126461600Y-24744200D03*
D13*
X202866400Y-110557400D03*
X204741400Y-110557400D03*
X55496400Y-138632200D03*
X57371400Y-138632200D03*
D29*
X180352800Y-124819700D03*
X182252800Y-124819700D03*
X181302800Y-122944700D03*
D13*
X118261600Y-187870600D03*
X120136600Y-187870600D03*
D17*
X107348000Y-61569000D03*
X105698000Y-61569000D03*
D11*
X47294800Y-70430000D03*
X45419800Y-70430000D03*
D18*
X192588800Y-120493200D03*
X183488800Y-120493200D03*
X192588800Y-115993200D03*
X183488800Y-115993200D03*
D13*
X144413700Y-60069000D03*
X146288700Y-60069000D03*
D15*
X102198000Y-38819000D03*
X102198000Y-36669000D03*
D16*
X187964800Y-171020600D03*
X187964800Y-169120600D03*
D13*
X121774600Y-112632200D03*
X123649600Y-112632200D03*
D10*
X64458400Y-178870600D03*
X66108400Y-178870600D03*
D11*
X50044800Y-42819000D03*
X48169800Y-42819000D03*
D10*
X210466400Y-109057400D03*
X212116400Y-109057400D03*
D16*
X71158400Y-171020600D03*
X71158400Y-169120600D03*
D28*
X72183400Y-66994200D03*
X70033400Y-66994200D03*
D13*
X144463200Y-110557400D03*
X146338200Y-110557400D03*
X212004400Y-70430000D03*
X213879400Y-70430000D03*
D23*
X158026200Y-173445400D03*
X160176200Y-173445400D03*
D11*
X76608400Y-30383200D03*
X74733400Y-30383200D03*
D10*
X181402800Y-130132200D03*
X183052800Y-130132200D03*
D18*
X95884000Y-50680000D03*
X104984000Y-50680000D03*
X104984000Y-46180000D03*
X95884000Y-46180000D03*
D21*
X40982300Y-44069000D03*
X40982300Y-42169000D03*
X39107300Y-43119000D03*
D10*
X122861600Y-44494200D03*
X124511600Y-44494200D03*
D27*
X131261600Y-201620600D03*
X131261600Y-203770600D03*
D13*
X144413700Y-199695400D03*
X146288700Y-199695400D03*
D11*
X56594300Y-110557400D03*
X54719300Y-110557400D03*
D23*
X70421400Y-103632200D03*
X72571400Y-103632200D03*
D13*
X150963200Y-127807400D03*
X152838200Y-127807400D03*
D17*
X77933400Y-175370600D03*
X76283400Y-175370600D03*
D21*
X103635500Y-44069000D03*
X103635500Y-42169000D03*
X101760500Y-43119000D03*
D18*
X37620800Y-119946400D03*
X46720800Y-119946400D03*
X37620800Y-124446400D03*
X46720800Y-124446400D03*
D16*
X187964800Y-31394200D03*
X187964800Y-29494200D03*
D13*
X201504400Y-68819000D03*
X203379400Y-68819000D03*
D10*
X181264800Y-180620600D03*
X182914800Y-180620600D03*
D17*
X165751200Y-201195400D03*
X164101200Y-201195400D03*
D13*
X202816900Y-60069000D03*
X204691900Y-60069000D03*
X173664800Y-180370600D03*
X175539800Y-180370600D03*
D20*
X45344800Y-74169000D03*
X45344800Y-76069000D03*
D13*
X176677800Y-122382200D03*
X178552800Y-122382200D03*
X30669800Y-52569000D03*
X32544800Y-52569000D03*
D11*
X202602300Y-180370600D03*
X200727300Y-180370600D03*
D17*
X77933400Y-178370600D03*
X76283400Y-178370600D03*
X194739800Y-175370600D03*
X193089800Y-175370600D03*
D26*
X211504400Y-196545400D03*
X211504400Y-198195400D03*
D17*
X136336600Y-38744200D03*
X134686600Y-38744200D03*
D15*
X219004400Y-38819000D03*
X219004400Y-36669000D03*
D13*
X176664800Y-48244200D03*
X178539800Y-48244200D03*
D16*
X184864800Y-166270600D03*
X184864800Y-164370600D03*
D13*
X84698000Y-208445400D03*
X86573000Y-208445400D03*
D29*
X63546400Y-124819700D03*
X65446400Y-124819700D03*
X64496400Y-122944700D03*
D23*
X187227800Y-103632200D03*
X189377800Y-103632200D03*
D13*
X124399600Y-140243200D03*
X126274600Y-140243200D03*
X209366400Y-127807400D03*
X211241400Y-127807400D03*
D28*
X101385000Y-136807400D03*
X99235000Y-136807400D03*
D13*
X95185000Y-136807400D03*
X97060000Y-136807400D03*
D17*
X165751200Y-58069000D03*
X164101200Y-58069000D03*
D11*
X76545900Y-66994200D03*
X74670900Y-66994200D03*
D20*
X191352800Y-143982200D03*
X191352800Y-145882200D03*
D19*
X72420900Y-196370600D03*
X72420900Y-198270600D03*
X74295900Y-197320600D03*
D16*
X220316400Y-96457400D03*
X220316400Y-94557400D03*
D14*
X73858400Y-44539200D03*
X73858400Y-43269200D03*
X73858400Y-41999200D03*
X73858400Y-40729200D03*
X73858400Y-39459200D03*
X73858400Y-38189200D03*
X73858400Y-36919200D03*
X73858400Y-35649200D03*
X68558400Y-35649200D03*
X68558400Y-36919200D03*
X68558400Y-38189200D03*
X68558400Y-39459200D03*
X68558400Y-40729200D03*
X68558400Y-41999200D03*
X68558400Y-43269200D03*
X68558400Y-44539200D03*
D23*
X41219800Y-33819000D03*
X43369800Y-33819000D03*
D10*
X122999600Y-130132200D03*
X124649600Y-130132200D03*
D14*
X161463200Y-114352400D03*
X161463200Y-113082400D03*
X161463200Y-111812400D03*
X161463200Y-110542400D03*
X161463200Y-109272400D03*
X161463200Y-108002400D03*
X161463200Y-106732400D03*
X161463200Y-105462400D03*
X156163200Y-105462400D03*
X156163200Y-106732400D03*
X156163200Y-108002400D03*
X156163200Y-109272400D03*
X156163200Y-110542400D03*
X156163200Y-111812400D03*
X156163200Y-113082400D03*
X156163200Y-114352400D03*
D16*
X191114800Y-26644200D03*
X191114800Y-24744200D03*
D10*
X93873000Y-201695400D03*
X95523000Y-201695400D03*
D16*
X132711600Y-166270600D03*
X132711600Y-164370600D03*
X184864800Y-26644200D03*
X184864800Y-24744200D03*
D10*
X35469800Y-62069000D03*
X37119800Y-62069000D03*
D11*
X134899600Y-140243200D03*
X133024600Y-140243200D03*
D28*
X218191400Y-136807400D03*
X216041400Y-136807400D03*
D14*
X190664800Y-44539200D03*
X190664800Y-43269200D03*
X190664800Y-41999200D03*
X190664800Y-40729200D03*
X190664800Y-39459200D03*
X190664800Y-38189200D03*
X190664800Y-36919200D03*
X190664800Y-35649200D03*
X185364800Y-35649200D03*
X185364800Y-36919200D03*
X185364800Y-38189200D03*
X185364800Y-39459200D03*
X185364800Y-40729200D03*
X185364800Y-41999200D03*
X185364800Y-43269200D03*
X185364800Y-44539200D03*
D17*
X136549600Y-127882200D03*
X134899600Y-127882200D03*
D19*
X184977300Y-56744200D03*
X184977300Y-58644200D03*
X186852300Y-57694200D03*
D13*
X65983400Y-206620600D03*
X67858400Y-206620600D03*
D25*
X72908400Y-69544200D03*
X72908400Y-70944200D03*
X69808400Y-69544200D03*
X69808400Y-70944200D03*
D16*
X161913200Y-96457400D03*
X161913200Y-94557400D03*
D17*
X48944800Y-56319000D03*
X47294800Y-56319000D03*
D20*
X159051200Y-69419000D03*
X159051200Y-71319000D03*
D15*
X43794800Y-38819000D03*
X43794800Y-36669000D03*
D13*
X202816900Y-199695400D03*
X204691900Y-199695400D03*
D11*
X166851200Y-182445400D03*
X164976200Y-182445400D03*
D15*
X215754400Y-178445400D03*
X215754400Y-176295400D03*
D13*
X56808900Y-129882200D03*
X58683900Y-129882200D03*
D20*
X103748000Y-213795400D03*
X103748000Y-215695400D03*
D17*
X165613200Y-110307400D03*
X163963200Y-110307400D03*
D11*
X164213200Y-100196400D03*
X162338200Y-100196400D03*
X141136600Y-187870600D03*
X139261600Y-187870600D03*
D17*
X136549600Y-131382200D03*
X134899600Y-131382200D03*
D10*
X152063200Y-116057400D03*
X153713200Y-116057400D03*
D29*
X34344800Y-55006500D03*
X36244800Y-55006500D03*
X35294800Y-53131500D03*
D17*
X78008400Y-180120600D03*
X76358400Y-180120600D03*
D13*
X182865300Y-103632200D03*
X184740300Y-103632200D03*
D16*
X45106800Y-96457400D03*
X45106800Y-94557400D03*
D10*
X210604400Y-199945400D03*
X212254400Y-199945400D03*
D26*
X36294800Y-56919000D03*
X36294800Y-58569000D03*
D10*
X122861600Y-46244200D03*
X124511600Y-46244200D03*
D13*
X36906800Y-100196400D03*
X38781800Y-100196400D03*
D26*
X94698000Y-56919000D03*
X94698000Y-58569000D03*
D17*
X165751200Y-54569000D03*
X164101200Y-54569000D03*
D20*
X220554400Y-213795400D03*
X220554400Y-215695400D03*
D13*
X172164800Y-171620600D03*
X174039800Y-171620600D03*
D11*
X105823000Y-173445400D03*
X103948000Y-173445400D03*
D20*
X100648000Y-69419000D03*
X100648000Y-71319000D03*
D11*
X114997500Y-110557400D03*
X113122500Y-110557400D03*
D13*
X115261600Y-180370600D03*
X117136600Y-180370600D03*
D23*
X158026200Y-33819000D03*
X160176200Y-33819000D03*
D22*
X137461600Y-45806700D03*
X135561600Y-45806700D03*
X136511600Y-47681700D03*
D17*
X224154400Y-56319000D03*
X222504400Y-56319000D03*
D18*
X96024000Y-119946400D03*
X105124000Y-119946400D03*
X96024000Y-124446400D03*
X105124000Y-124446400D03*
D29*
X151151200Y-194632900D03*
X153051200Y-194632900D03*
X152101200Y-192757900D03*
D22*
X195864800Y-185433100D03*
X193964800Y-185433100D03*
X194914800Y-187308100D03*
D11*
X193414800Y-170009600D03*
X191539800Y-170009600D03*
X144199100Y-40744200D03*
X142324100Y-40744200D03*
D17*
X165751200Y-194195400D03*
X164101200Y-194195400D03*
D11*
X193302800Y-140243200D03*
X191427800Y-140243200D03*
D17*
X107348000Y-56319000D03*
X105698000Y-56319000D03*
D18*
X134325600Y-50133200D03*
X125225600Y-50133200D03*
X134325600Y-54633200D03*
X125225600Y-54633200D03*
D17*
X136549600Y-124382200D03*
X134899600Y-124382200D03*
D13*
X66108400Y-170009600D03*
X67983400Y-170009600D03*
D17*
X107348000Y-58069000D03*
X105698000Y-58069000D03*
D11*
X85795900Y-40744200D03*
X83920900Y-40744200D03*
D26*
X153101200Y-56919000D03*
X153101200Y-58569000D03*
D13*
X124386600Y-66994200D03*
X126261600Y-66994200D03*
D10*
X64458400Y-182370600D03*
X66108400Y-182370600D03*
D13*
X36794800Y-210056400D03*
X38669800Y-210056400D03*
D24*
X135511600Y-43894200D03*
X135511600Y-42244200D03*
D12*
X127149600Y-126087200D03*
X127149600Y-127357200D03*
X127149600Y-128627200D03*
X127149600Y-129897200D03*
X127149600Y-131167200D03*
X127149600Y-132437200D03*
X127149600Y-133707200D03*
X127149600Y-134977200D03*
X132449600Y-134977200D03*
X132449600Y-133707200D03*
X132449600Y-132437200D03*
X132449600Y-131167200D03*
X132449600Y-129897200D03*
X132449600Y-128627200D03*
X132449600Y-127357200D03*
X132449600Y-126087200D03*
D17*
X194952800Y-126132200D03*
X193302800Y-126132200D03*
D20*
X155901200Y-213795400D03*
X155901200Y-215695400D03*
D10*
X122861600Y-178870600D03*
X124511600Y-178870600D03*
D11*
X231803900Y-110557400D03*
X229928900Y-110557400D03*
D17*
X107348000Y-194195400D03*
X105698000Y-194195400D03*
D15*
X98948000Y-178445400D03*
X98948000Y-176295400D03*
D11*
X222629400Y-173445400D03*
X220754400Y-173445400D03*
D15*
X160601200Y-38819000D03*
X160601200Y-36669000D03*
D10*
X181477800Y-131882200D03*
X183127800Y-131882200D03*
D11*
X105747500Y-136807400D03*
X103872500Y-136807400D03*
D17*
X77933400Y-35744200D03*
X76283400Y-35744200D03*
D27*
X72858400Y-201620600D03*
X72858400Y-203770600D03*
D10*
X181264800Y-185870600D03*
X182914800Y-185870600D03*
X64458400Y-40994200D03*
X66108400Y-40994200D03*
D11*
X144199100Y-180370600D03*
X142324100Y-180370600D03*
D17*
X194739800Y-178370600D03*
X193089800Y-178370600D03*
D20*
X155901200Y-74169000D03*
X155901200Y-76069000D03*
D10*
X123074600Y-134882200D03*
X124724600Y-134882200D03*
D29*
X92748000Y-194632900D03*
X94648000Y-194632900D03*
X93698000Y-192757900D03*
D10*
X181264800Y-40994200D03*
X182914800Y-40994200D03*
D17*
X48731800Y-108557400D03*
X47081800Y-108557400D03*
D16*
X100360000Y-101207400D03*
X100360000Y-99307400D03*
D11*
X135011600Y-170009600D03*
X133136600Y-170009600D03*
D22*
X49856800Y-115619900D03*
X47956800Y-115619900D03*
X48906800Y-117494900D03*
D21*
X103635500Y-183695400D03*
X103635500Y-181795400D03*
X101760500Y-182745400D03*
D19*
X126574100Y-196370600D03*
X126574100Y-198270600D03*
X128449100Y-197320600D03*
D24*
X223116400Y-113707400D03*
X223116400Y-112057400D03*
D13*
X212004400Y-210056400D03*
X213879400Y-210056400D03*
D24*
X47906800Y-113707400D03*
X47906800Y-112057400D03*
D13*
X84560000Y-101807400D03*
X86435000Y-101807400D03*
D12*
X156351200Y-195900400D03*
X156351200Y-197170400D03*
X156351200Y-198440400D03*
X156351200Y-199710400D03*
X156351200Y-200980400D03*
X156351200Y-202250400D03*
X156351200Y-203520400D03*
X156351200Y-204790400D03*
X161651200Y-204790400D03*
X161651200Y-203520400D03*
X161651200Y-202250400D03*
X161651200Y-200980400D03*
X161651200Y-199710400D03*
X161651200Y-198440400D03*
X161651200Y-197170400D03*
X161651200Y-195900400D03*
D18*
X183628800Y-189759600D03*
X192728800Y-189759600D03*
X192728800Y-194259600D03*
X183628800Y-194259600D03*
D11*
X47419800Y-173445400D03*
X45544800Y-173445400D03*
D16*
X74308400Y-166270600D03*
X74308400Y-164370600D03*
D11*
X231754400Y-199695400D03*
X229879400Y-199695400D03*
D10*
X35256800Y-109057400D03*
X36906800Y-109057400D03*
D18*
X183628800Y-50133200D03*
X192728800Y-50133200D03*
X192728800Y-54633200D03*
X183628800Y-54633200D03*
D26*
X65496400Y-126732200D03*
X65496400Y-128382200D03*
D13*
X115212100Y-129882200D03*
X117087100Y-129882200D03*
D11*
X164101200Y-210056400D03*
X162226200Y-210056400D03*
D13*
X89060000Y-118057400D03*
X90935000Y-118057400D03*
D20*
X74546400Y-143982200D03*
X74546400Y-145882200D03*
D13*
X95310000Y-100196400D03*
X97185000Y-100196400D03*
D11*
X108448000Y-42819000D03*
X106573000Y-42819000D03*
D19*
X101622500Y-126557400D03*
X101622500Y-128457400D03*
X103497500Y-127507400D03*
D13*
X121761600Y-197620600D03*
X123636600Y-197620600D03*
D11*
X193352300Y-206620600D03*
X191477300Y-206620600D03*
X203914800Y-31994200D03*
X202039800Y-31994200D03*
D25*
X189714800Y-209170600D03*
X189714800Y-210570600D03*
X186614800Y-209170600D03*
X186614800Y-210570600D03*
D10*
X64458400Y-184120600D03*
X66108400Y-184120600D03*
D13*
X36857300Y-33819000D03*
X38732300Y-33819000D03*
D11*
X79233400Y-57994200D03*
X77358400Y-57994200D03*
D13*
X84698000Y-68819000D03*
X86573000Y-68819000D03*
D21*
X70183900Y-113882200D03*
X70183900Y-111982200D03*
X68308900Y-112932200D03*
D13*
X36781800Y-136807400D03*
X38656800Y-136807400D03*
X150976200Y-42819000D03*
X152851200Y-42819000D03*
D12*
X156351200Y-56274000D03*
X156351200Y-57544000D03*
X156351200Y-58814000D03*
X156351200Y-60084000D03*
X156351200Y-61354000D03*
X156351200Y-62624000D03*
X156351200Y-63894000D03*
X156351200Y-65164000D03*
X161651200Y-65164000D03*
X161651200Y-63894000D03*
X161651200Y-62624000D03*
X161651200Y-61354000D03*
X161651200Y-60084000D03*
X161651200Y-58814000D03*
X161651200Y-57544000D03*
X161651200Y-56274000D03*
D11*
X144149600Y-129882200D03*
X142274600Y-129882200D03*
D29*
X209554400Y-55006500D03*
X211454400Y-55006500D03*
X210504400Y-53131500D03*
D13*
X147476200Y-192195400D03*
X149351200Y-192195400D03*
D26*
X94698000Y-196545400D03*
X94698000Y-198195400D03*
D25*
X128099600Y-101082200D03*
X128099600Y-99682200D03*
X131199600Y-101082200D03*
X131199600Y-99682200D03*
X40494800Y-170895400D03*
X40494800Y-169495400D03*
X43594800Y-170895400D03*
X43594800Y-169495400D03*
X157301200Y-31269000D03*
X157301200Y-29869000D03*
X160401200Y-31269000D03*
X160401200Y-29869000D03*
D28*
X130586600Y-206620600D03*
X128436600Y-206620600D03*
D19*
X68170900Y-56744200D03*
X68170900Y-58644200D03*
X70045900Y-57694200D03*
D10*
X181264800Y-44494200D03*
X182914800Y-44494200D03*
D13*
X124511600Y-170009600D03*
X126386600Y-170009600D03*
D11*
X231754400Y-60069000D03*
X229879400Y-60069000D03*
D28*
X72183400Y-206620600D03*
X70033400Y-206620600D03*
D20*
X71446400Y-139232200D03*
X71446400Y-141132200D03*
D17*
X48731800Y-105557400D03*
X47081800Y-105557400D03*
D27*
X160463200Y-131807400D03*
X160463200Y-133957400D03*
D11*
X85746400Y-129882200D03*
X83871400Y-129882200D03*
D17*
X194952800Y-129632200D03*
X193302800Y-129632200D03*
D16*
X155663200Y-96457400D03*
X155663200Y-94557400D03*
D20*
X103748000Y-74169000D03*
X103748000Y-76069000D03*
D17*
X48944800Y-194195400D03*
X47294800Y-194195400D03*
D25*
X186502800Y-101082200D03*
X186502800Y-99682200D03*
X189602800Y-101082200D03*
X189602800Y-99682200D03*
D20*
X129849600Y-139232200D03*
X129849600Y-141132200D03*
D10*
X93873000Y-62069000D03*
X95523000Y-62069000D03*
D11*
X105698000Y-70430000D03*
X103823000Y-70430000D03*
D21*
X74433900Y-113882200D03*
X74433900Y-111982200D03*
X72558900Y-112932200D03*
D10*
X64596400Y-130132200D03*
X66246400Y-130132200D03*
D23*
X99623000Y-173445400D03*
X101773000Y-173445400D03*
D10*
X152276200Y-62069000D03*
X153926200Y-62069000D03*
D17*
X136549600Y-129632200D03*
X134899600Y-129632200D03*
D10*
X35469800Y-65069000D03*
X37119800Y-65069000D03*
D11*
X137649600Y-112632200D03*
X135774600Y-112632200D03*
D16*
X129561600Y-31394200D03*
X129561600Y-29494200D03*
D10*
X123074600Y-131882200D03*
X124724600Y-131882200D03*
D13*
X173615300Y-129882200D03*
X175490300Y-129882200D03*
D25*
X72908400Y-209170600D03*
X72908400Y-210570600D03*
X69808400Y-209170600D03*
X69808400Y-210570600D03*
D13*
X209379400Y-182445400D03*
X211254400Y-182445400D03*
D11*
X164150700Y-136807400D03*
X162275700Y-136807400D03*
D17*
X107135000Y-108557400D03*
X105485000Y-108557400D03*
D10*
X152063200Y-109057400D03*
X153713200Y-109057400D03*
D11*
X222504400Y-70430000D03*
X220629400Y-70430000D03*
D18*
X154287200Y-50680000D03*
X163387200Y-50680000D03*
X163387200Y-46180000D03*
X154287200Y-46180000D03*
D11*
X53544800Y-52569000D03*
X51669800Y-52569000D03*
D25*
X98898000Y-170895400D03*
X98898000Y-169495400D03*
X101998000Y-170895400D03*
X101998000Y-169495400D03*
D17*
X136336600Y-178370600D03*
X134686600Y-178370600D03*
D21*
X45232300Y-44069000D03*
X45232300Y-42169000D03*
X43357300Y-43119000D03*
D13*
X66058900Y-103632200D03*
X67933900Y-103632200D03*
D11*
X233254400Y-208445400D03*
X231379400Y-208445400D03*
D13*
X121761600Y-57994200D03*
X123636600Y-57994200D03*
X153663700Y-33819000D03*
X155538700Y-33819000D03*
D10*
X64458400Y-180620600D03*
X66108400Y-180620600D03*
D20*
X217454400Y-69419000D03*
X217454400Y-71319000D03*
D11*
X228754400Y-52569000D03*
X226879400Y-52569000D03*
D26*
X36294800Y-196545400D03*
X36294800Y-198195400D03*
D17*
X224154400Y-194195400D03*
X222504400Y-194195400D03*
X107348000Y-197695400D03*
X105698000Y-197695400D03*
D22*
X225066400Y-115619900D03*
X223166400Y-115619900D03*
X224116400Y-117494900D03*
D14*
X132261600Y-184165600D03*
X132261600Y-182895600D03*
X132261600Y-181625600D03*
X132261600Y-180355600D03*
X132261600Y-179085600D03*
X132261600Y-177815600D03*
X132261600Y-176545600D03*
X132261600Y-175275600D03*
X126961600Y-175275600D03*
X126961600Y-176545600D03*
X126961600Y-177815600D03*
X126961600Y-179085600D03*
X126961600Y-180355600D03*
X126961600Y-181625600D03*
X126961600Y-182895600D03*
X126961600Y-184165600D03*
D12*
X97948000Y-56274000D03*
X97948000Y-57544000D03*
X97948000Y-58814000D03*
X97948000Y-60084000D03*
X97948000Y-61354000D03*
X97948000Y-62624000D03*
X97948000Y-63894000D03*
X97948000Y-65164000D03*
X103248000Y-65164000D03*
X103248000Y-63894000D03*
X103248000Y-62624000D03*
X103248000Y-61354000D03*
X103248000Y-60084000D03*
X103248000Y-58814000D03*
X103248000Y-57544000D03*
X103248000Y-56274000D03*
D16*
X217166400Y-101207400D03*
X217166400Y-99307400D03*
D10*
X122861600Y-42744200D03*
X124511600Y-42744200D03*
D13*
X95260500Y-173445400D03*
X97135500Y-173445400D03*
D10*
X64458400Y-39244200D03*
X66108400Y-39244200D03*
D11*
X111948000Y-52569000D03*
X110073000Y-52569000D03*
D13*
X143101200Y-68819000D03*
X144976200Y-68819000D03*
D27*
X131261600Y-61994200D03*
X131261600Y-64144200D03*
D11*
X105698000Y-210056400D03*
X103823000Y-210056400D03*
D17*
X224154400Y-197695400D03*
X222504400Y-197695400D03*
D27*
X128011600Y-201620600D03*
X128011600Y-203770600D03*
D14*
X219866400Y-114352400D03*
X219866400Y-113082400D03*
X219866400Y-111812400D03*
X219866400Y-110542400D03*
X219866400Y-109272400D03*
X219866400Y-108002400D03*
X219866400Y-106732400D03*
X219866400Y-105462400D03*
X214566400Y-105462400D03*
X214566400Y-106732400D03*
X214566400Y-108002400D03*
X214566400Y-109272400D03*
X214566400Y-110542400D03*
X214566400Y-111812400D03*
X214566400Y-113082400D03*
X214566400Y-114352400D03*
D13*
X89073000Y-192195400D03*
X90948000Y-192195400D03*
D10*
X64458400Y-46244200D03*
X66108400Y-46244200D03*
D11*
X222553900Y-136807400D03*
X220678900Y-136807400D03*
D15*
X40544800Y-178445400D03*
X40544800Y-176295400D03*
D17*
X107348000Y-59819000D03*
X105698000Y-59819000D03*
D11*
X108448000Y-182445400D03*
X106573000Y-182445400D03*
D13*
X205866400Y-118057400D03*
X207741400Y-118057400D03*
X95198000Y-210056400D03*
X97073000Y-210056400D03*
X124462100Y-103632200D03*
X126337100Y-103632200D03*
X92573000Y-42819000D03*
X94448000Y-42819000D03*
D10*
X210466400Y-116057400D03*
X212116400Y-116057400D03*
D20*
X97498000Y-213795400D03*
X97498000Y-215695400D03*
D13*
X201504400Y-208445400D03*
X203379400Y-208445400D03*
D11*
X173400700Y-110557400D03*
X171525700Y-110557400D03*
D15*
X131399600Y-108632200D03*
X131399600Y-106482200D03*
D10*
X93660000Y-110807400D03*
X95310000Y-110807400D03*
D17*
X78146400Y-131382200D03*
X76496400Y-131382200D03*
D27*
X69608400Y-61994200D03*
X69608400Y-64144200D03*
D13*
X182789800Y-206620600D03*
X184664800Y-206620600D03*
M02*
